M48
; DRILL file {KiCad 9.0.0} date 2025-03-02T18:11:57+0530
; FORMAT={-:-/ absolute / metric / decimal}
; #@! TF.CreationDate,2025-03-02T18:11:57+05:30
; #@! TF.GenerationSoftware,Kicad,Pcbnew,9.0.0
; #@! TF.FileFunction,Plated,1,2,PTH
FMAT,2
METRIC
; #@! TA.AperFunction,Plated,PTH,ComponentDrill
T1C0.700
; #@! TA.AperFunction,Plated,PTH,ComponentDrill
T2C0.800
; #@! TA.AperFunction,Plated,PTH,ComponentDrill
T3C1.300
%
G90
G05
T1
X31.735Y-45.987
X33.925Y-35.907
X33.925Y-40.987
X33.925Y-50.987
X33.925Y-56.067
X36.815Y-45.987
X56.545Y-28.402
X56.545Y-45.578
X56.545Y-62.787
X61.625Y-28.402
X61.625Y-45.578
X61.625Y-62.787
X74.585Y-28.402
X74.585Y-45.578
X74.71Y-62.787
X79.665Y-28.402
X79.665Y-45.578
X79.79Y-62.787
T2
X42.725Y-39.262
X42.725Y-41.802
X42.725Y-44.343
X42.725Y-46.883
X42.725Y-49.422
X42.725Y-51.962
X42.725Y-54.502
X50.345Y-39.262
X50.345Y-41.802
X50.345Y-44.343
X50.345Y-46.883
X50.345Y-49.422
X50.345Y-51.962
X50.345Y-54.502
X64.305Y-25.862
X64.305Y-28.402
X64.305Y-30.942
X64.305Y-33.483
X64.305Y-43.038
X64.305Y-45.578
X64.305Y-48.117
X64.305Y-50.657
X64.305Y-60.247
X64.305Y-62.787
X64.305Y-65.328
X64.305Y-67.867
X71.925Y-25.862
X71.925Y-28.402
X71.925Y-30.942
X71.925Y-33.483
X71.925Y-43.038
X71.925Y-45.578
X71.925Y-48.117
X71.925Y-50.657
X71.925Y-60.247
X71.925Y-62.787
X71.925Y-65.328
X71.925Y-67.867
X74.585Y-25.562
X74.585Y-33.483
X74.585Y-50.657
X74.65Y-42.612
X74.71Y-68.013
X74.75Y-59.787
X79.585Y-25.562
X79.585Y-33.483
X79.585Y-50.657
X79.65Y-42.612
X79.71Y-68.013
X79.75Y-59.787
X89.125Y-38.837
X89.125Y-41.377
X89.125Y-43.917
X89.125Y-46.457
X89.125Y-48.997
X89.125Y-51.537
X89.125Y-54.078
X89.55Y-33.462
X94.55Y-33.462
X96.745Y-38.837
X96.745Y-41.377
X96.745Y-43.917
X96.745Y-46.457
X96.745Y-48.997
X96.745Y-51.537
X96.745Y-54.078
X107.625Y-37.612
X107.625Y-40.152
X107.625Y-42.692
X107.625Y-45.232
X107.625Y-47.773
X107.625Y-50.312
X107.625Y-52.852
X107.625Y-55.392
X115.245Y-37.612
X115.245Y-40.152
X115.245Y-42.692
X115.245Y-45.232
X115.245Y-47.773
X115.245Y-50.312
X115.245Y-52.852
X115.245Y-55.392
T3
X22.02Y-35.987
X22.02Y-40.987
X22.02Y-45.987
X22.02Y-50.987
X22.02Y-55.987
X87.368Y-23.438
X92.368Y-23.438
X97.368Y-23.438
X105.375Y-23.543
X105.375Y-68.587
X110.375Y-23.543
X110.375Y-68.587
X115.375Y-23.543
X115.375Y-68.587
X120.375Y-23.543
X120.375Y-68.587
X129.525Y-37.788
X129.525Y-42.788
X129.525Y-47.787
X129.525Y-52.787
M30
