%TF.GenerationSoftware,KiCad,Pcbnew,9.0.0*%
%TF.CreationDate,2025-03-02T18:11:32+05:30*%
%TF.ProjectId,PWM Interface Board to C2000 MCU,50574d20-496e-4746-9572-666163652042,rev?*%
%TF.SameCoordinates,Original*%
%TF.FileFunction,Legend,Bot*%
%TF.FilePolarity,Positive*%
%FSLAX46Y46*%
G04 Gerber Fmt 4.6, Leading zero omitted, Abs format (unit mm)*
G04 Created by KiCad (PCBNEW 9.0.0) date 2025-03-02 18:11:32*
%MOMM*%
%LPD*%
G01*
G04 APERTURE LIST*
%ADD10C,0.150000*%
%ADD11C,0.300000*%
G04 APERTURE END LIST*
D10*
G36*
X61711959Y-70781645D02*
G01*
X61719342Y-70872181D01*
X61742257Y-70967597D01*
X61782394Y-71069193D01*
X61842110Y-71178234D01*
X61916011Y-71282102D01*
X62002060Y-71376372D01*
X62101001Y-71461588D01*
X62213897Y-71538009D01*
X62342105Y-71605598D01*
X62495320Y-71666330D01*
X62654016Y-71709789D01*
X62819144Y-71736102D01*
X62991761Y-71745000D01*
X63329915Y-71745000D01*
X62958971Y-70695732D01*
X62589035Y-70695732D01*
X62903650Y-71580868D01*
X62805221Y-71573464D01*
X62706383Y-71550996D01*
X62606137Y-71512609D01*
X62503580Y-71456854D01*
X62408544Y-71389094D01*
X62329593Y-71315591D01*
X62265141Y-71236163D01*
X62214061Y-71150299D01*
X62165178Y-71040025D01*
X62139639Y-70951994D01*
X62132087Y-70881754D01*
X62139295Y-70793586D01*
X62159027Y-70724457D01*
X62189496Y-70670419D01*
X62230456Y-70628596D01*
X62293089Y-70593557D01*
X62380650Y-70569879D01*
X62500924Y-70560910D01*
X63491756Y-70560910D01*
X63333945Y-70302990D01*
X62342105Y-70302990D01*
X62212949Y-70310483D01*
X62099954Y-70331822D01*
X62000884Y-70365744D01*
X61913825Y-70411617D01*
X61839963Y-70468538D01*
X61784302Y-70532798D01*
X61744723Y-70605206D01*
X61720416Y-70687386D01*
X61711959Y-70781645D01*
G37*
G36*
X60387460Y-71580868D02*
G01*
X60407715Y-71629338D01*
X60439961Y-71670354D01*
X60485829Y-71704974D01*
X60558377Y-71734736D01*
X60642633Y-71745000D01*
X61213428Y-71745000D01*
X61370044Y-71736101D01*
X61487187Y-71712465D01*
X61573114Y-71677742D01*
X61634662Y-71634089D01*
X61676861Y-71581897D01*
X61702432Y-71519698D01*
X61711409Y-71444398D01*
X61700644Y-71352641D01*
X61669450Y-71273349D01*
X61617387Y-71203576D01*
X61541325Y-71141781D01*
X61466393Y-71101305D01*
X61384157Y-71071905D01*
X61293456Y-71053730D01*
X61192912Y-71047442D01*
X61044351Y-71047442D01*
X60958282Y-71052233D01*
X60882571Y-71065901D01*
X60815832Y-71087650D01*
X60754361Y-71120524D01*
X60713469Y-71158234D01*
X60688818Y-71201042D01*
X60678537Y-71250683D01*
X60682975Y-71302544D01*
X60701039Y-71349456D01*
X60733746Y-71393098D01*
X60784050Y-71434323D01*
X61123211Y-71434323D01*
X61012569Y-71211573D01*
X61228724Y-71211573D01*
X61312805Y-71458777D01*
X61319949Y-71497795D01*
X61312702Y-71532032D01*
X61291589Y-71556776D01*
X61252662Y-71573921D01*
X61186775Y-71580868D01*
X60387460Y-71580868D01*
G37*
G36*
X59155377Y-71580868D02*
G01*
X59165269Y-71622846D01*
X59190272Y-71661191D01*
X59233779Y-71697281D01*
X59285009Y-71723861D01*
X59338820Y-71739670D01*
X59396170Y-71745000D01*
X60174969Y-71745000D01*
X60268392Y-71737372D01*
X60330067Y-71717972D01*
X60369090Y-71690189D01*
X60391537Y-71654448D01*
X60399367Y-71608071D01*
X60397352Y-71581418D01*
X60386487Y-71543802D01*
X60365107Y-71512527D01*
X60331773Y-71486346D01*
X60279710Y-71464593D01*
X60219024Y-71457770D01*
X60147559Y-71469586D01*
X60050232Y-71507148D01*
X59918789Y-71580868D01*
X59887622Y-71533616D01*
X59870120Y-71488169D01*
X59864475Y-71443390D01*
X59872211Y-71398465D01*
X59908531Y-71284296D01*
X60024302Y-71387428D01*
X60229282Y-71387428D01*
X59956707Y-71137568D01*
X59982261Y-71085177D01*
X59992374Y-71045668D01*
X59996641Y-70998990D01*
X59744583Y-70730903D01*
X59663530Y-70754186D01*
X59612983Y-70787681D01*
X59584371Y-70830418D01*
X59574498Y-70885417D01*
X59585409Y-70955946D01*
X59618553Y-71021522D01*
X59541708Y-71221923D01*
X59504771Y-71345945D01*
X59494631Y-71430567D01*
X59502304Y-71486136D01*
X59525037Y-71535631D01*
X59564240Y-71580868D01*
X59155377Y-71580868D01*
G37*
G36*
X58450859Y-70624841D02*
G01*
X58459671Y-70689945D01*
X58485671Y-70747514D01*
X58530268Y-70799688D01*
X58586669Y-70839567D01*
X58649667Y-70863405D01*
X58721327Y-70871587D01*
X58794386Y-70863353D01*
X58858051Y-70839466D01*
X58914493Y-70799688D01*
X58959090Y-70747514D01*
X58985090Y-70689945D01*
X58993902Y-70624841D01*
X58985120Y-70560464D01*
X58959152Y-70503278D01*
X58914493Y-70451184D01*
X58858045Y-70411352D01*
X58794380Y-70387436D01*
X58721327Y-70379193D01*
X58649673Y-70387385D01*
X58586675Y-70411251D01*
X58530268Y-70451184D01*
X58485608Y-70503278D01*
X58459640Y-70560464D01*
X58450859Y-70624841D01*
G37*
G36*
X58377036Y-71580868D02*
G01*
X58401351Y-71636108D01*
X58437774Y-71680019D01*
X58487678Y-71714225D01*
X58550360Y-71737227D01*
X58618837Y-71745000D01*
X59023669Y-71745000D01*
X59092477Y-71735914D01*
X59135584Y-71712479D01*
X59160895Y-71676047D01*
X59170123Y-71622084D01*
X59166726Y-71586853D01*
X59155835Y-71547254D01*
X58977507Y-71047442D01*
X58605556Y-71047442D01*
X58795150Y-71580868D01*
X58377036Y-71580868D01*
G37*
G36*
X58000776Y-71056520D02*
G01*
X58105047Y-71082343D01*
X58195411Y-71123646D01*
X58264128Y-71171929D01*
X58318531Y-71229494D01*
X58360063Y-71297223D01*
X58389126Y-71376803D01*
X58399196Y-71422850D01*
X58402407Y-71465372D01*
X58394157Y-71534508D01*
X58370078Y-71595210D01*
X58329592Y-71649562D01*
X58284662Y-71688932D01*
X58232155Y-71718728D01*
X58170773Y-71739138D01*
X58224350Y-71777687D01*
X58264353Y-71834440D01*
X58290908Y-71914448D01*
X58300924Y-72025451D01*
X58292730Y-72098186D01*
X58269796Y-72156172D01*
X58232780Y-72202772D01*
X58183845Y-72237428D01*
X58123894Y-72259007D01*
X58049873Y-72266702D01*
X57952261Y-72256428D01*
X57865366Y-72226461D01*
X57786735Y-72176541D01*
X57714833Y-72104403D01*
X57661065Y-72026155D01*
X57600766Y-71909888D01*
X57545443Y-71774309D01*
X57902320Y-71774309D01*
X58026334Y-72109807D01*
X58059289Y-72079054D01*
X58078293Y-72043609D01*
X58084769Y-72001729D01*
X58078796Y-71953184D01*
X58060170Y-71903097D01*
X58026884Y-71850238D01*
X57984302Y-71805631D01*
X57943343Y-71781816D01*
X57902320Y-71774309D01*
X57545443Y-71774309D01*
X57533483Y-71745000D01*
X57351125Y-71745000D01*
X57245494Y-71736597D01*
X57167820Y-71714245D01*
X57111562Y-71680791D01*
X57071994Y-71636884D01*
X57046768Y-71580868D01*
X57481184Y-71580868D01*
X57351385Y-71211573D01*
X57721977Y-71211573D01*
X57854143Y-71604316D01*
X57878231Y-71605323D01*
X57902320Y-71606331D01*
X57964069Y-71599276D01*
X58001297Y-71581604D01*
X58022067Y-71555430D01*
X58029357Y-71518312D01*
X58022213Y-71474806D01*
X57940239Y-71211573D01*
X57721977Y-71211573D01*
X57351385Y-71211573D01*
X57293697Y-71047442D01*
X57879788Y-71047442D01*
X58000776Y-71056520D01*
G37*
G36*
X55655499Y-71580868D02*
G01*
X55680273Y-71635561D01*
X55718871Y-71679542D01*
X55773377Y-71714225D01*
X55839917Y-71737244D01*
X55911680Y-71745000D01*
X56320542Y-71745000D01*
X56389360Y-71737446D01*
X56430428Y-71718669D01*
X56453018Y-71691220D01*
X56460860Y-71652767D01*
X56457603Y-71621066D01*
X56446571Y-71581051D01*
X56368719Y-71358119D01*
X56721161Y-71658354D01*
X56807434Y-71710880D01*
X56873816Y-71737374D01*
X56925135Y-71745000D01*
X57113629Y-71745000D01*
X56868715Y-71047442D01*
X56498778Y-71047442D01*
X56614641Y-71373964D01*
X56302132Y-71117601D01*
X56235518Y-71071568D01*
X56167986Y-71040374D01*
X56098661Y-71022718D01*
X56026443Y-71018133D01*
X55981169Y-71026932D01*
X55951390Y-71046826D01*
X55932974Y-71078222D01*
X55926059Y-71125661D01*
X55929873Y-71164741D01*
X55942454Y-71211482D01*
X56074620Y-71580868D01*
X55655499Y-71580868D01*
G37*
G36*
X55014453Y-71182264D02*
G01*
X55020280Y-71225106D01*
X55037528Y-71263298D01*
X55067210Y-71298218D01*
X55104721Y-71324923D01*
X55146780Y-71340903D01*
X55194796Y-71346395D01*
X55241386Y-71340935D01*
X55282423Y-71324992D01*
X55319269Y-71298218D01*
X55348339Y-71263371D01*
X55365284Y-71225174D01*
X55371017Y-71182264D01*
X55365240Y-71139388D01*
X55348155Y-71101225D01*
X55318811Y-71066401D01*
X55281596Y-71039609D01*
X55240018Y-71023619D01*
X55192690Y-71018133D01*
X55145425Y-71023618D01*
X55103908Y-71039607D01*
X55066752Y-71066401D01*
X55037351Y-71101232D01*
X55020240Y-71139395D01*
X55014453Y-71182264D01*
G37*
G36*
X55110716Y-71610177D02*
G01*
X55116500Y-71653050D01*
X55133610Y-71691245D01*
X55163014Y-71726132D01*
X55200163Y-71752871D01*
X55241681Y-71768832D01*
X55288952Y-71774309D01*
X55336939Y-71768795D01*
X55378643Y-71752801D01*
X55415531Y-71726132D01*
X55444601Y-71691284D01*
X55461546Y-71653087D01*
X55467280Y-71610177D01*
X55461544Y-71567271D01*
X55444598Y-71529106D01*
X55415531Y-71494315D01*
X55378637Y-71467591D01*
X55336933Y-71451569D01*
X55288952Y-71446046D01*
X55241687Y-71451532D01*
X55200170Y-71467521D01*
X55163014Y-71494315D01*
X55133614Y-71529145D01*
X55116502Y-71567308D01*
X55110716Y-71610177D01*
G37*
G36*
X51765901Y-70550744D02*
G01*
X51774765Y-70614743D01*
X51801023Y-70671714D01*
X51846318Y-70723759D01*
X51903346Y-70763458D01*
X51967049Y-70787222D01*
X52039484Y-70795383D01*
X52111900Y-70787203D01*
X52175442Y-70763405D01*
X52232192Y-70723668D01*
X52277138Y-70671600D01*
X52303239Y-70614507D01*
X52312059Y-70550286D01*
X52303816Y-70488828D01*
X52362251Y-70484706D01*
X52435431Y-70494355D01*
X52481259Y-70519235D01*
X52508154Y-70557894D01*
X52517956Y-70615132D01*
X52501858Y-70700130D01*
X52426273Y-70914085D01*
X52370831Y-71072567D01*
X52342639Y-71190937D01*
X52334590Y-71277702D01*
X52343014Y-71366603D01*
X52367528Y-71446111D01*
X52408051Y-71518204D01*
X52465898Y-71584238D01*
X52543670Y-71644836D01*
X52645084Y-71699845D01*
X52761366Y-71743865D01*
X52889473Y-71776336D01*
X53030855Y-71796589D01*
X53187120Y-71803618D01*
X53375178Y-71794199D01*
X53542013Y-71767269D01*
X53690230Y-71724392D01*
X53794665Y-71678730D01*
X53872723Y-71628604D01*
X53929243Y-71574598D01*
X53967870Y-71516477D01*
X53990809Y-71453163D01*
X53998617Y-71382848D01*
X53988499Y-71299339D01*
X53959616Y-71230179D01*
X53911789Y-71171943D01*
X53841766Y-71123061D01*
X53743667Y-71084065D01*
X53609567Y-71057467D01*
X53429928Y-71047442D01*
X53039567Y-71047442D01*
X52964737Y-71211573D01*
X53269094Y-71211573D01*
X53378938Y-71222111D01*
X53468946Y-71251690D01*
X53519719Y-71282964D01*
X53553272Y-71318685D01*
X53572880Y-71359432D01*
X53579588Y-71407028D01*
X53571028Y-71459244D01*
X53545237Y-71505955D01*
X53499258Y-71549137D01*
X53426905Y-71589112D01*
X53346997Y-71616965D01*
X53263250Y-71633790D01*
X53174847Y-71639487D01*
X53063539Y-71630476D01*
X52969973Y-71605069D01*
X52890915Y-71564657D01*
X52832503Y-71516261D01*
X52791972Y-71460102D01*
X52767344Y-71394710D01*
X52758749Y-71317452D01*
X52765958Y-71244332D01*
X52791617Y-71141281D01*
X52842829Y-70999540D01*
X52893777Y-70857849D01*
X52919518Y-70753170D01*
X52926818Y-70677414D01*
X52918107Y-70594920D01*
X52893218Y-70525102D01*
X52852455Y-70465169D01*
X52794057Y-70413476D01*
X52714400Y-70369735D01*
X52608336Y-70335027D01*
X52469502Y-70311666D01*
X52290535Y-70302990D01*
X52037469Y-70302990D01*
X51970322Y-70310821D01*
X51908715Y-70334053D01*
X51850990Y-70373606D01*
X51802802Y-70427871D01*
X51775154Y-70486218D01*
X51765901Y-70550744D01*
G37*
G36*
X50847518Y-71580868D02*
G01*
X50855643Y-71624645D01*
X50880594Y-71664428D01*
X50926378Y-71701952D01*
X50998310Y-71734443D01*
X51071916Y-71745000D01*
X51464384Y-71745000D01*
X51537747Y-71735403D01*
X51583591Y-71710696D01*
X51610421Y-71672410D01*
X51620180Y-71615856D01*
X51617008Y-71582700D01*
X51606808Y-71545148D01*
X51491037Y-71211573D01*
X51709298Y-71211573D01*
X51823054Y-71505947D01*
X51848956Y-71546957D01*
X51888606Y-71571731D01*
X51947069Y-71580868D01*
X52055696Y-71580868D01*
X51921423Y-71211573D01*
X51979120Y-71188212D01*
X52024463Y-71147276D01*
X52053952Y-71093680D01*
X52063847Y-71032329D01*
X52056955Y-70976271D01*
X52036978Y-70928137D01*
X52003496Y-70886007D01*
X51954213Y-70848964D01*
X51891353Y-70819836D01*
X51819542Y-70801723D01*
X51736959Y-70795383D01*
X51570996Y-70795383D01*
X51657091Y-71047442D01*
X51090417Y-71047442D01*
X51276897Y-71580868D01*
X50847518Y-71580868D01*
G37*
G36*
X50140252Y-70624841D02*
G01*
X50149064Y-70689945D01*
X50175064Y-70747514D01*
X50219661Y-70799688D01*
X50276061Y-70839567D01*
X50339060Y-70863405D01*
X50410720Y-70871587D01*
X50483779Y-70863353D01*
X50547444Y-70839466D01*
X50603886Y-70799688D01*
X50648483Y-70747514D01*
X50674482Y-70689945D01*
X50683295Y-70624841D01*
X50674513Y-70560464D01*
X50648545Y-70503278D01*
X50603886Y-70451184D01*
X50547438Y-70411352D01*
X50483773Y-70387436D01*
X50410720Y-70379193D01*
X50339066Y-70387385D01*
X50276068Y-70411251D01*
X50219661Y-70451184D01*
X50175001Y-70503278D01*
X50149033Y-70560464D01*
X50140252Y-70624841D01*
G37*
G36*
X50066429Y-71580868D02*
G01*
X50090744Y-71636108D01*
X50127167Y-71680019D01*
X50177071Y-71714225D01*
X50239753Y-71737227D01*
X50308230Y-71745000D01*
X50713062Y-71745000D01*
X50781870Y-71735914D01*
X50824977Y-71712479D01*
X50850288Y-71676047D01*
X50859516Y-71622084D01*
X50856119Y-71586853D01*
X50845228Y-71547254D01*
X50666900Y-71047442D01*
X50294949Y-71047442D01*
X50484542Y-71580868D01*
X50066429Y-71580868D01*
G37*
G36*
X48662338Y-71580868D02*
G01*
X48687112Y-71635561D01*
X48725710Y-71679542D01*
X48780216Y-71714225D01*
X48846756Y-71737244D01*
X48918518Y-71745000D01*
X49327381Y-71745000D01*
X49396199Y-71737446D01*
X49437267Y-71718669D01*
X49459857Y-71691220D01*
X49467698Y-71652767D01*
X49464442Y-71621066D01*
X49453410Y-71581051D01*
X49375558Y-71358119D01*
X49728000Y-71658354D01*
X49814272Y-71710880D01*
X49880655Y-71737374D01*
X49931974Y-71745000D01*
X50120468Y-71745000D01*
X49875553Y-71047442D01*
X49505617Y-71047442D01*
X49621480Y-71373964D01*
X49308971Y-71117601D01*
X49242357Y-71071568D01*
X49174825Y-71040374D01*
X49105500Y-71022718D01*
X49033282Y-71018133D01*
X48988008Y-71026932D01*
X48958228Y-71046826D01*
X48939812Y-71078222D01*
X48932898Y-71125661D01*
X48936711Y-71164741D01*
X48949293Y-71211482D01*
X49081459Y-71580868D01*
X48662338Y-71580868D01*
G37*
G36*
X47966979Y-70624841D02*
G01*
X47975791Y-70689945D01*
X48001791Y-70747514D01*
X48046388Y-70799688D01*
X48102789Y-70839567D01*
X48165787Y-70863405D01*
X48237447Y-70871587D01*
X48310506Y-70863353D01*
X48374171Y-70839466D01*
X48430613Y-70799688D01*
X48475210Y-70747514D01*
X48501210Y-70689945D01*
X48510022Y-70624841D01*
X48501240Y-70560464D01*
X48475272Y-70503278D01*
X48430613Y-70451184D01*
X48374165Y-70411352D01*
X48310500Y-70387436D01*
X48237447Y-70379193D01*
X48165793Y-70387385D01*
X48102795Y-70411251D01*
X48046388Y-70451184D01*
X48001729Y-70503278D01*
X47975760Y-70560464D01*
X47966979Y-70624841D01*
G37*
G36*
X47893156Y-71580868D02*
G01*
X47917471Y-71636108D01*
X47953894Y-71680019D01*
X48003798Y-71714225D01*
X48066480Y-71737227D01*
X48134957Y-71745000D01*
X48539789Y-71745000D01*
X48608597Y-71735914D01*
X48651704Y-71712479D01*
X48677015Y-71676047D01*
X48686243Y-71622084D01*
X48682846Y-71586853D01*
X48671955Y-71547254D01*
X48493627Y-71047442D01*
X48121676Y-71047442D01*
X48311270Y-71580868D01*
X47893156Y-71580868D01*
G37*
G36*
X46354884Y-71047442D02*
G01*
X46379146Y-71102047D01*
X46417661Y-71146028D01*
X46472670Y-71180799D01*
X46539289Y-71203820D01*
X46611065Y-71211573D01*
X47041359Y-71211573D01*
X47474768Y-71745000D01*
X47884638Y-71745000D01*
X47928785Y-71047442D01*
X47556742Y-71047442D01*
X47550606Y-71552109D01*
X47166381Y-71047442D01*
X46354884Y-71047442D01*
G37*
G36*
X46425865Y-71055058D02*
G01*
X46522278Y-71076933D01*
X46608063Y-71112186D01*
X46684795Y-71160740D01*
X46756821Y-71229087D01*
X46807274Y-71307045D01*
X46838035Y-71396532D01*
X46848743Y-71500635D01*
X46839973Y-71577203D01*
X46814993Y-71640803D01*
X46774005Y-71694350D01*
X46720103Y-71734961D01*
X46656130Y-71759744D01*
X46579191Y-71768447D01*
X46500844Y-71760281D01*
X46430064Y-71736332D01*
X46365038Y-71696257D01*
X46304601Y-71638204D01*
X46295425Y-71682521D01*
X46268873Y-71714315D01*
X46220324Y-71736179D01*
X46138638Y-71745000D01*
X45750292Y-71745000D01*
X45670641Y-71737432D01*
X45608971Y-71716699D01*
X45561274Y-71684336D01*
X45524966Y-71639863D01*
X45499241Y-71580868D01*
X45924498Y-71580868D01*
X45791085Y-71211573D01*
X46160162Y-71211573D01*
X46290221Y-71581051D01*
X46379130Y-71573000D01*
X46429801Y-71553627D01*
X46455871Y-71526946D01*
X46464427Y-71491750D01*
X46458291Y-71450717D01*
X46386575Y-71211573D01*
X46160162Y-71211573D01*
X45791085Y-71211573D01*
X45731790Y-71047442D01*
X46316874Y-71047442D01*
X46425865Y-71055058D01*
G37*
G36*
X44263402Y-71580868D02*
G01*
X44273294Y-71622846D01*
X44298297Y-71661191D01*
X44341804Y-71697281D01*
X44393034Y-71723861D01*
X44446846Y-71739670D01*
X44504195Y-71745000D01*
X45282994Y-71745000D01*
X45376417Y-71737372D01*
X45438092Y-71717972D01*
X45477115Y-71690189D01*
X45499563Y-71654448D01*
X45507392Y-71608071D01*
X45505377Y-71581418D01*
X45494512Y-71543802D01*
X45473132Y-71512527D01*
X45439798Y-71486346D01*
X45387736Y-71464593D01*
X45327049Y-71457770D01*
X45255585Y-71469586D01*
X45158257Y-71507148D01*
X45026814Y-71580868D01*
X44995647Y-71533616D01*
X44978145Y-71488169D01*
X44972500Y-71443390D01*
X44980236Y-71398465D01*
X45016556Y-71284296D01*
X45132327Y-71387428D01*
X45337308Y-71387428D01*
X45064733Y-71137568D01*
X45090286Y-71085177D01*
X45100399Y-71045668D01*
X45104666Y-70998990D01*
X44852608Y-70730903D01*
X44771555Y-70754186D01*
X44721009Y-70787681D01*
X44692396Y-70830418D01*
X44682523Y-70885417D01*
X44693434Y-70955946D01*
X44726578Y-71021522D01*
X44649733Y-71221923D01*
X44612796Y-71345945D01*
X44602656Y-71430567D01*
X44610329Y-71486136D01*
X44633062Y-71535631D01*
X44672265Y-71580868D01*
X44263402Y-71580868D01*
G37*
G36*
X43868642Y-71055058D02*
G01*
X43965055Y-71076933D01*
X44050841Y-71112186D01*
X44127573Y-71160740D01*
X44199599Y-71229087D01*
X44250051Y-71307045D01*
X44280812Y-71396532D01*
X44291521Y-71500635D01*
X44282751Y-71577203D01*
X44257771Y-71640803D01*
X44216782Y-71694350D01*
X44162880Y-71734961D01*
X44098907Y-71759744D01*
X44021968Y-71768447D01*
X43943621Y-71760281D01*
X43872841Y-71736332D01*
X43807815Y-71696257D01*
X43747378Y-71638204D01*
X43738203Y-71682521D01*
X43711650Y-71714315D01*
X43663101Y-71736179D01*
X43581415Y-71745000D01*
X43193069Y-71745000D01*
X43113419Y-71737432D01*
X43051748Y-71716699D01*
X43004051Y-71684336D01*
X42967743Y-71639863D01*
X42942018Y-71580868D01*
X43367275Y-71580868D01*
X43233862Y-71211573D01*
X43602939Y-71211573D01*
X43732998Y-71581051D01*
X43821907Y-71573000D01*
X43872579Y-71553627D01*
X43898648Y-71526946D01*
X43907205Y-71491750D01*
X43901068Y-71450717D01*
X43829352Y-71211573D01*
X43602939Y-71211573D01*
X43233862Y-71211573D01*
X43174568Y-71047442D01*
X43759651Y-71047442D01*
X43868642Y-71055058D01*
G37*
G36*
X41744098Y-71580868D02*
G01*
X41752223Y-71624645D01*
X41777174Y-71664428D01*
X41822958Y-71701952D01*
X41894891Y-71734443D01*
X41968497Y-71745000D01*
X42360964Y-71745000D01*
X42434328Y-71735403D01*
X42480172Y-71710696D01*
X42507002Y-71672410D01*
X42516761Y-71615856D01*
X42513589Y-71582700D01*
X42503388Y-71545148D01*
X42387617Y-71211573D01*
X42605879Y-71211573D01*
X42719635Y-71505947D01*
X42745536Y-71546957D01*
X42785186Y-71571731D01*
X42843649Y-71580868D01*
X42952276Y-71580868D01*
X42818004Y-71211573D01*
X42875700Y-71188212D01*
X42921044Y-71147276D01*
X42950532Y-71093680D01*
X42960428Y-71032329D01*
X42953535Y-70976271D01*
X42933559Y-70928137D01*
X42900077Y-70886007D01*
X42850793Y-70848964D01*
X42787933Y-70819836D01*
X42716123Y-70801723D01*
X42633539Y-70795383D01*
X42467576Y-70795383D01*
X42553672Y-71047442D01*
X41986998Y-71047442D01*
X42173477Y-71580868D01*
X41744098Y-71580868D01*
G37*
G36*
X41346590Y-71055058D02*
G01*
X41443004Y-71076933D01*
X41528789Y-71112186D01*
X41605521Y-71160740D01*
X41677547Y-71229087D01*
X41728000Y-71307045D01*
X41758760Y-71396532D01*
X41769469Y-71500635D01*
X41760699Y-71577203D01*
X41735719Y-71640803D01*
X41694731Y-71694350D01*
X41640829Y-71734961D01*
X41576855Y-71759744D01*
X41499917Y-71768447D01*
X41421570Y-71760281D01*
X41350789Y-71736332D01*
X41285763Y-71696257D01*
X41225327Y-71638204D01*
X41216151Y-71682521D01*
X41189598Y-71714315D01*
X41141050Y-71736179D01*
X41059364Y-71745000D01*
X40671017Y-71745000D01*
X40591367Y-71737432D01*
X40529697Y-71716699D01*
X40482000Y-71684336D01*
X40445691Y-71639863D01*
X40419966Y-71580868D01*
X40845224Y-71580868D01*
X40711811Y-71211573D01*
X41080887Y-71211573D01*
X41210947Y-71581051D01*
X41299856Y-71573000D01*
X41350527Y-71553627D01*
X41376597Y-71526946D01*
X41385153Y-71491750D01*
X41379016Y-71450717D01*
X41307301Y-71211573D01*
X41080887Y-71211573D01*
X40711811Y-71211573D01*
X40652516Y-71047442D01*
X41237600Y-71047442D01*
X41346590Y-71055058D01*
G37*
G36*
X40063491Y-71054096D02*
G01*
X40159853Y-71072770D01*
X40241384Y-71101991D01*
X40310332Y-71140956D01*
X40367911Y-71189668D01*
X40412103Y-71245765D01*
X40444080Y-71310183D01*
X40464022Y-71384497D01*
X40469151Y-71439910D01*
X40461788Y-71507455D01*
X40440406Y-71566694D01*
X40404850Y-71619521D01*
X40353380Y-71667056D01*
X40286887Y-71707002D01*
X40204946Y-71737150D01*
X40104383Y-71756354D01*
X39981428Y-71762585D01*
X39876961Y-71755595D01*
X39787185Y-71736813D01*
X39709902Y-71707427D01*
X39643274Y-71667971D01*
X39582400Y-71614144D01*
X39537731Y-71552311D01*
X39507803Y-71481202D01*
X39492607Y-71398694D01*
X39494498Y-71352960D01*
X39510009Y-71294371D01*
X39536268Y-71241139D01*
X39565330Y-71211573D01*
X39794857Y-71211573D01*
X39931145Y-71603308D01*
X39964942Y-71604316D01*
X40047904Y-71596470D01*
X40095659Y-71577461D01*
X40120597Y-71550941D01*
X40128890Y-71515472D01*
X40121746Y-71476180D01*
X40029514Y-71211573D01*
X39794857Y-71211573D01*
X39565330Y-71211573D01*
X38923918Y-71211573D01*
X38842768Y-71203863D01*
X38781282Y-71182929D01*
X38734915Y-71150533D01*
X38700765Y-71106228D01*
X38677996Y-71047442D01*
X39949646Y-71047442D01*
X40063491Y-71054096D01*
G37*
G36*
X36365047Y-70302990D02*
G01*
X37203288Y-71047442D01*
X37125436Y-71047442D01*
X37058601Y-71056590D01*
X37016312Y-71080372D01*
X36991164Y-71117803D01*
X36981912Y-71173838D01*
X36986394Y-71217043D01*
X37001421Y-71270375D01*
X37110048Y-71580868D01*
X36684791Y-71580868D01*
X36709992Y-71637188D01*
X36749147Y-71681152D01*
X36804411Y-71714494D01*
X36880254Y-71736681D01*
X36982920Y-71745000D01*
X37341591Y-71745000D01*
X37412406Y-71736447D01*
X37455720Y-71714789D01*
X37480364Y-71682118D01*
X37489144Y-71634999D01*
X37479893Y-71580594D01*
X37343606Y-71170540D01*
X37878497Y-71648096D01*
X37955341Y-71702353D01*
X38037907Y-71734233D01*
X38128541Y-71745000D01*
X38300732Y-71745000D01*
X37882619Y-70560910D01*
X38455430Y-70560910D01*
X38298626Y-70302990D01*
X37660236Y-70302990D01*
X37590167Y-70309747D01*
X37542461Y-70327305D01*
X37510913Y-70353422D01*
X37491879Y-70388627D01*
X37485022Y-70436072D01*
X37489715Y-70482813D01*
X37505539Y-70541310D01*
X37754575Y-71274863D01*
X36684791Y-70302990D01*
X36365047Y-70302990D01*
G37*
G36*
X36290763Y-71055058D02*
G01*
X36387177Y-71076933D01*
X36472962Y-71112186D01*
X36549694Y-71160740D01*
X36621720Y-71229087D01*
X36672173Y-71307045D01*
X36702933Y-71396532D01*
X36713642Y-71500635D01*
X36704872Y-71577203D01*
X36679892Y-71640803D01*
X36638904Y-71694350D01*
X36585002Y-71734961D01*
X36521028Y-71759744D01*
X36444090Y-71768447D01*
X36365743Y-71760281D01*
X36294962Y-71736332D01*
X36229937Y-71696257D01*
X36169500Y-71638204D01*
X36160324Y-71682521D01*
X36133771Y-71714315D01*
X36085223Y-71736179D01*
X36003537Y-71745000D01*
X35615191Y-71745000D01*
X35535540Y-71737432D01*
X35473870Y-71716699D01*
X35426173Y-71684336D01*
X35389865Y-71639863D01*
X35364139Y-71580868D01*
X35789397Y-71580868D01*
X35655984Y-71211573D01*
X36025061Y-71211573D01*
X36155120Y-71581051D01*
X36244029Y-71573000D01*
X36294700Y-71553627D01*
X36320770Y-71526946D01*
X36329326Y-71491750D01*
X36323189Y-71450717D01*
X36251474Y-71211573D01*
X36025061Y-71211573D01*
X35655984Y-71211573D01*
X35596689Y-71047442D01*
X36181773Y-71047442D01*
X36290763Y-71055058D01*
G37*
G36*
X33828157Y-71047442D02*
G01*
X33852419Y-71102047D01*
X33890934Y-71146028D01*
X33945943Y-71180799D01*
X34012562Y-71203820D01*
X34084337Y-71211573D01*
X34514632Y-71211573D01*
X34948041Y-71745000D01*
X35357911Y-71745000D01*
X35402058Y-71047442D01*
X35030015Y-71047442D01*
X35023879Y-71552109D01*
X34639654Y-71047442D01*
X33828157Y-71047442D01*
G37*
G36*
X32936610Y-71580868D02*
G01*
X32956938Y-71633621D01*
X32988062Y-71676162D01*
X33030857Y-71710103D01*
X33090371Y-71736361D01*
X33152856Y-71745000D01*
X33581136Y-71745000D01*
X33655370Y-71737021D01*
X33699438Y-71717264D01*
X33723500Y-71688575D01*
X33731803Y-71648646D01*
X33775100Y-71690644D01*
X33824637Y-71720369D01*
X33881663Y-71738624D01*
X33948050Y-71745000D01*
X34128393Y-71745000D01*
X34182105Y-71739695D01*
X34224269Y-71725049D01*
X34257445Y-71701952D01*
X34281113Y-71672834D01*
X34295462Y-71638158D01*
X34300492Y-71596256D01*
X34297002Y-71559375D01*
X34286113Y-71520327D01*
X34114013Y-71047442D01*
X33742062Y-71047442D01*
X33933670Y-71580868D01*
X33725667Y-71580868D01*
X33535066Y-71047442D01*
X33167144Y-71047442D01*
X33353624Y-71580868D01*
X32936610Y-71580868D01*
G37*
G36*
X31740888Y-71580868D02*
G01*
X31749013Y-71624645D01*
X31773964Y-71664428D01*
X31819748Y-71701952D01*
X31891680Y-71734443D01*
X31965286Y-71745000D01*
X32357754Y-71745000D01*
X32431118Y-71735403D01*
X32476962Y-71710696D01*
X32503792Y-71672410D01*
X32513551Y-71615856D01*
X32510379Y-71582700D01*
X32500178Y-71545148D01*
X32384407Y-71211573D01*
X32602669Y-71211573D01*
X32716425Y-71505947D01*
X32742326Y-71546957D01*
X32781976Y-71571731D01*
X32840439Y-71580868D01*
X32949066Y-71580868D01*
X32814794Y-71211573D01*
X32872490Y-71188212D01*
X32917834Y-71147276D01*
X32947322Y-71093680D01*
X32957218Y-71032329D01*
X32950325Y-70976271D01*
X32930349Y-70928137D01*
X32896866Y-70886007D01*
X32847583Y-70848964D01*
X32784723Y-70819836D01*
X32712913Y-70801723D01*
X32630329Y-70795383D01*
X32464366Y-70795383D01*
X32550462Y-71047442D01*
X31983788Y-71047442D01*
X32170267Y-71580868D01*
X31740888Y-71580868D01*
G37*
G36*
X30380853Y-71580868D02*
G01*
X30401181Y-71633621D01*
X30432305Y-71676162D01*
X30475100Y-71710103D01*
X30534614Y-71736361D01*
X30597099Y-71745000D01*
X31025379Y-71745000D01*
X31099613Y-71737021D01*
X31143681Y-71717264D01*
X31167743Y-71688575D01*
X31176046Y-71648646D01*
X31219342Y-71690644D01*
X31268880Y-71720369D01*
X31325906Y-71738624D01*
X31392293Y-71745000D01*
X31572636Y-71745000D01*
X31626347Y-71739695D01*
X31668512Y-71725049D01*
X31701687Y-71701952D01*
X31725356Y-71672834D01*
X31739704Y-71638158D01*
X31744735Y-71596256D01*
X31741245Y-71559375D01*
X31730355Y-71520327D01*
X31558256Y-71047442D01*
X31186304Y-71047442D01*
X31377913Y-71580868D01*
X31169910Y-71580868D01*
X30979309Y-71047442D01*
X30611387Y-71047442D01*
X30797867Y-71580868D01*
X30380853Y-71580868D01*
G37*
D11*
X78584285Y-36715471D02*
X78655713Y-36786900D01*
X78655713Y-36786900D02*
X78869999Y-36858328D01*
X78869999Y-36858328D02*
X79012856Y-36858328D01*
X79012856Y-36858328D02*
X79227142Y-36786900D01*
X79227142Y-36786900D02*
X79369999Y-36644042D01*
X79369999Y-36644042D02*
X79441428Y-36501185D01*
X79441428Y-36501185D02*
X79512856Y-36215471D01*
X79512856Y-36215471D02*
X79512856Y-36001185D01*
X79512856Y-36001185D02*
X79441428Y-35715471D01*
X79441428Y-35715471D02*
X79369999Y-35572614D01*
X79369999Y-35572614D02*
X79227142Y-35429757D01*
X79227142Y-35429757D02*
X79012856Y-35358328D01*
X79012856Y-35358328D02*
X78869999Y-35358328D01*
X78869999Y-35358328D02*
X78655713Y-35429757D01*
X78655713Y-35429757D02*
X78584285Y-35501185D01*
X77941428Y-36715471D02*
X77869999Y-36786900D01*
X77869999Y-36786900D02*
X77941428Y-36858328D01*
X77941428Y-36858328D02*
X78012856Y-36786900D01*
X78012856Y-36786900D02*
X77941428Y-36715471D01*
X77941428Y-36715471D02*
X77941428Y-36858328D01*
X77298570Y-36429757D02*
X76584285Y-36429757D01*
X77441427Y-36858328D02*
X76941427Y-35358328D01*
X76941427Y-35358328D02*
X76441427Y-36858328D01*
X75727142Y-36858328D02*
X75869999Y-36786900D01*
X75869999Y-36786900D02*
X75941428Y-36715471D01*
X75941428Y-36715471D02*
X76012856Y-36572614D01*
X76012856Y-36572614D02*
X76012856Y-36144042D01*
X76012856Y-36144042D02*
X75941428Y-36001185D01*
X75941428Y-36001185D02*
X75869999Y-35929757D01*
X75869999Y-35929757D02*
X75727142Y-35858328D01*
X75727142Y-35858328D02*
X75512856Y-35858328D01*
X75512856Y-35858328D02*
X75369999Y-35929757D01*
X75369999Y-35929757D02*
X75298571Y-36001185D01*
X75298571Y-36001185D02*
X75227142Y-36144042D01*
X75227142Y-36144042D02*
X75227142Y-36572614D01*
X75227142Y-36572614D02*
X75298571Y-36715471D01*
X75298571Y-36715471D02*
X75369999Y-36786900D01*
X75369999Y-36786900D02*
X75512856Y-36858328D01*
X75512856Y-36858328D02*
X75727142Y-36858328D01*
M02*
