%TF.GenerationSoftware,KiCad,Pcbnew,9.0.0*%
%TF.CreationDate,2025-03-02T18:11:32+05:30*%
%TF.ProjectId,PWM Interface Board to C2000 MCU,50574d20-496e-4746-9572-666163652042,rev?*%
%TF.SameCoordinates,Original*%
%TF.FileFunction,Copper,L2,Bot*%
%TF.FilePolarity,Positive*%
%FSLAX46Y46*%
G04 Gerber Fmt 4.6, Leading zero omitted, Abs format (unit mm)*
G04 Created by KiCad (PCBNEW 9.0.0) date 2025-03-02 18:11:32*
%MOMM*%
%LPD*%
G01*
G04 APERTURE LIST*
%TA.AperFunction,ComponentPad*%
%ADD10C,1.400000*%
%TD*%
%TA.AperFunction,ComponentPad*%
%ADD11O,1.400000X1.400000*%
%TD*%
%TA.AperFunction,ComponentPad*%
%ADD12C,1.600000*%
%TD*%
%TA.AperFunction,ComponentPad*%
%ADD13R,1.600000X1.600000*%
%TD*%
%TA.AperFunction,ComponentPad*%
%ADD14O,1.600000X1.600000*%
%TD*%
%TA.AperFunction,ComponentPad*%
%ADD15R,2.600000X2.600000*%
%TD*%
%TA.AperFunction,ComponentPad*%
%ADD16C,2.600000*%
%TD*%
%TA.AperFunction,Conductor*%
%ADD17C,1.000000*%
%TD*%
%TA.AperFunction,Conductor*%
%ADD18C,1.500000*%
%TD*%
G04 APERTURE END LIST*
D10*
%TO.P,R1O1,1*%
%TO.N,+5V*%
X74585000Y-28402500D03*
D11*
%TO.P,R1O1,2*%
%TO.N,Net-(LS1-Ain)*%
X79665000Y-28402500D03*
%TD*%
D12*
%TO.P,C2,1*%
%TO.N,Net-(LS1-Ein)*%
X79585000Y-50657500D03*
%TO.P,C2,2*%
%TO.N,GNDREF*%
X74585000Y-50657500D03*
%TD*%
D13*
%TO.P,Opt2,1,NC*%
%TO.N,unconnected-(Opt2-NC-Pad1)*%
X64305000Y-43037500D03*
D14*
%TO.P,Opt2,2,A*%
%TO.N,Net-(Opt2-A)*%
X64305000Y-45577500D03*
%TO.P,Opt2,3,C*%
%TO.N,GND*%
X64305000Y-48117500D03*
%TO.P,Opt2,4*%
%TO.N,N/C*%
X64305000Y-50657500D03*
%TO.P,Opt2,5,GND*%
%TO.N,GNDREF*%
X71925000Y-50657500D03*
%TO.P,Opt2,6,VO*%
%TO.N,Net-(LS1-Ein)*%
X71925000Y-48117500D03*
%TO.P,Opt2,7,EN*%
%TO.N,unconnected-(Opt2-EN-Pad7)*%
X71925000Y-45577500D03*
%TO.P,Opt2,8,VCC*%
%TO.N,+5V*%
X71925000Y-43037500D03*
%TD*%
D15*
%TO.P,J_PWR1,1,Pin_1*%
%TO.N,GNDREF*%
X97368356Y-23438279D03*
D16*
%TO.P,J_PWR1,2,Pin_2*%
%TO.N,+5V*%
X92368356Y-23438279D03*
%TO.P,J_PWR1,3,Pin_3*%
%TO.N,+15V*%
X87368356Y-23438279D03*
%TD*%
D12*
%TO.P,C1,1*%
%TO.N,Net-(LS1-Ain)*%
X79585000Y-33482500D03*
%TO.P,C1,2*%
%TO.N,GNDREF*%
X74585000Y-33482500D03*
%TD*%
D10*
%TO.P,R2Oi1,1*%
%TO.N,Net-(Opt2-A)*%
X61625000Y-45577500D03*
D11*
%TO.P,R2Oi1,2*%
%TO.N,Net-(R2Oi1-Pad2)*%
X56545000Y-45577500D03*
%TD*%
D15*
%TO.P,JB1,1,Pin_1*%
%TO.N,GNDREF*%
X129525000Y-52787500D03*
D16*
%TO.P,JB1,2,Pin_2*%
%TO.N,Net-(JB1-Pin_2)*%
X129525000Y-47787500D03*
%TO.P,JB1,3,Pin_3*%
%TO.N,Net-(JB1-Pin_3)*%
X129525000Y-42787500D03*
%TO.P,JB1,4,Pin_4*%
%TO.N,+15V*%
X129525000Y-37787500D03*
%TD*%
D12*
%TO.P,C6,1*%
%TO.N,+5V*%
X74750000Y-59787500D03*
%TO.P,C6,2*%
%TO.N,GNDREF*%
X79750000Y-59787500D03*
%TD*%
D13*
%TO.P,Opt1,1,NC*%
%TO.N,unconnected-(Opt1-NC-Pad1)*%
X64305000Y-25862500D03*
D14*
%TO.P,Opt1,2,A*%
%TO.N,Net-(Opt1-A)*%
X64305000Y-28402500D03*
%TO.P,Opt1,3,C*%
%TO.N,GND*%
X64305000Y-30942500D03*
%TO.P,Opt1,4*%
%TO.N,N/C*%
X64305000Y-33482500D03*
%TO.P,Opt1,5,GND*%
%TO.N,GNDREF*%
X71925000Y-33482500D03*
%TO.P,Opt1,6,VO*%
%TO.N,Net-(LS1-Ain)*%
X71925000Y-30942500D03*
%TO.P,Opt1,7,EN*%
%TO.N,unconnected-(Opt1-EN-Pad7)*%
X71925000Y-28402500D03*
%TO.P,Opt1,8,VCC*%
%TO.N,+5V*%
X71925000Y-25862500D03*
%TD*%
D10*
%TO.P,R1i1,1*%
%TO.N,Net-(R1i1-Pad1)*%
X33925000Y-35907500D03*
D11*
%TO.P,R1i1,2*%
%TO.N,Net-(J_IN1-Pin_2)*%
X33925000Y-40987500D03*
%TD*%
D10*
%TO.P,R3i1,1*%
%TO.N,Net-(J_IN1-Pin_4)*%
X33925000Y-50987500D03*
D11*
%TO.P,R3i1,2*%
%TO.N,Net-(R3i1-Pad2)*%
X33925000Y-56067500D03*
%TD*%
D10*
%TO.P,R2O1,1*%
%TO.N,+5V*%
X74585000Y-45577500D03*
D11*
%TO.P,R2O1,2*%
%TO.N,Net-(LS1-Ein)*%
X79665000Y-45577500D03*
%TD*%
D12*
%TO.P,C4,1*%
%TO.N,+5V*%
X74585000Y-25562500D03*
%TO.P,C4,2*%
%TO.N,GNDREF*%
X79585000Y-25562500D03*
%TD*%
%TO.P,C5,1*%
%TO.N,+5V*%
X74650000Y-42612500D03*
%TO.P,C5,2*%
%TO.N,GNDREF*%
X79650000Y-42612500D03*
%TD*%
D15*
%TO.P,JA1,1,Pin_1*%
%TO.N,GNDREF*%
X120375000Y-23542500D03*
D16*
%TO.P,JA1,2,Pin_2*%
%TO.N,Net-(JA1-Pin_2)*%
X115375000Y-23542500D03*
%TO.P,JA1,3,Pin_3*%
%TO.N,Net-(JA1-Pin_3)*%
X110375000Y-23542500D03*
%TO.P,JA1,4,Pin_4*%
%TO.N,+15V*%
X105375000Y-23542500D03*
%TD*%
D10*
%TO.P,R3O1,1*%
%TO.N,+5V*%
X74710000Y-62787500D03*
D11*
%TO.P,R3O1,2*%
%TO.N,Net-(LS1-Bin)*%
X79790000Y-62787500D03*
%TD*%
D10*
%TO.P,R1Oi1,1*%
%TO.N,Net-(Opt1-A)*%
X61625000Y-28402500D03*
D11*
%TO.P,R1Oi1,2*%
%TO.N,Net-(R1Oi1-Pad2)*%
X56545000Y-28402500D03*
%TD*%
D13*
%TO.P,LS1,1,VCC*%
%TO.N,+5V*%
X107625000Y-37612500D03*
D14*
%TO.P,LS1,2,Aout*%
%TO.N,Net-(JA1-Pin_3)*%
X107625000Y-40152500D03*
%TO.P,LS1,3,Ain*%
%TO.N,Net-(LS1-Ain)*%
X107625000Y-42692500D03*
%TO.P,LS1,4,Bout*%
%TO.N,Net-(JC1-Pin_3)*%
X107625000Y-45232500D03*
%TO.P,LS1,5,Bin*%
%TO.N,Net-(LS1-Bin)*%
X107625000Y-47772500D03*
%TO.P,LS1,6,Cout*%
%TO.N,Net-(JC1-Pin_2)*%
X107625000Y-50312500D03*
%TO.P,LS1,7,Cin*%
%TO.N,Net-(LS1-Cin)*%
X107625000Y-52852500D03*
%TO.P,LS1,8,VSS*%
%TO.N,GNDREF*%
X107625000Y-55392500D03*
%TO.P,LS1,9,Din*%
%TO.N,Net-(LS1-Din)*%
X115245000Y-55392500D03*
%TO.P,LS1,10,Dout*%
%TO.N,Net-(JB1-Pin_2)*%
X115245000Y-52852500D03*
%TO.P,LS1,11,Ein*%
%TO.N,Net-(LS1-Ein)*%
X115245000Y-50312500D03*
%TO.P,LS1,12,Eout*%
%TO.N,Net-(JB1-Pin_3)*%
X115245000Y-47772500D03*
%TO.P,LS1,13,Select*%
%TO.N,unconnected-(LS1-Select-Pad13)*%
X115245000Y-45232500D03*
%TO.P,LS1,14,Fin*%
%TO.N,Net-(LS1-Fin)*%
X115245000Y-42692500D03*
%TO.P,LS1,15,Fout*%
%TO.N,Net-(JA1-Pin_2)*%
X115245000Y-40152500D03*
%TO.P,LS1,16,VDD*%
%TO.N,+15V*%
X115245000Y-37612500D03*
%TD*%
D15*
%TO.P,JC1,1,Pin_1*%
%TO.N,GNDREF*%
X105375000Y-68587500D03*
D16*
%TO.P,JC1,2,Pin_2*%
%TO.N,Net-(JC1-Pin_2)*%
X110375000Y-68587500D03*
%TO.P,JC1,3,Pin_3*%
%TO.N,Net-(JC1-Pin_3)*%
X115375000Y-68587500D03*
%TO.P,JC1,4,Pin_4*%
%TO.N,+15V*%
X120375000Y-68587500D03*
%TD*%
D15*
%TO.P,J_IN1,1,Pin_1*%
%TO.N,+5P*%
X22020000Y-35987500D03*
D16*
%TO.P,J_IN1,2,Pin_2*%
%TO.N,Net-(J_IN1-Pin_2)*%
X22020000Y-40987500D03*
%TO.P,J_IN1,3,Pin_3*%
%TO.N,Net-(J_IN1-Pin_3)*%
X22020000Y-45987500D03*
%TO.P,J_IN1,4,Pin_4*%
%TO.N,Net-(J_IN1-Pin_4)*%
X22020000Y-50987500D03*
%TO.P,J_IN1,5,Pin_5*%
%TO.N,GND*%
X22020000Y-55987500D03*
%TD*%
D13*
%TO.P,Opt3,1,NC*%
%TO.N,unconnected-(Opt3-NC-Pad1)*%
X64305000Y-60247500D03*
D14*
%TO.P,Opt3,2,A*%
%TO.N,Net-(Opt3-A)*%
X64305000Y-62787500D03*
%TO.P,Opt3,3,C*%
%TO.N,GND*%
X64305000Y-65327500D03*
%TO.P,Opt3,4*%
%TO.N,N/C*%
X64305000Y-67867500D03*
%TO.P,Opt3,5,GND*%
%TO.N,GNDREF*%
X71925000Y-67867500D03*
%TO.P,Opt3,6,VO*%
%TO.N,Net-(LS1-Bin)*%
X71925000Y-65327500D03*
%TO.P,Opt3,7,EN*%
%TO.N,unconnected-(Opt3-EN-Pad7)*%
X71925000Y-62787500D03*
%TO.P,Opt3,8,VCC*%
%TO.N,+5V*%
X71925000Y-60247500D03*
%TD*%
D13*
%TO.P,UTB1,1*%
%TO.N,GND*%
X42725000Y-39262500D03*
D14*
%TO.P,UTB1,2*%
%TO.N,Net-(R2i1-Pad1)*%
X42725000Y-41802500D03*
%TO.P,UTB1,3*%
%TO.N,Net-(R2Oi1-Pad2)*%
X42725000Y-44342500D03*
%TO.P,UTB1,4*%
%TO.N,unconnected-(UTB1-Pad4)*%
X42725000Y-46882500D03*
%TO.P,UTB1,5*%
%TO.N,unconnected-(UTB1-Pad5)*%
X42725000Y-49422500D03*
%TO.P,UTB1,6*%
%TO.N,unconnected-(UTB1-Pad6)*%
X42725000Y-51962500D03*
%TO.P,UTB1,7,GND*%
%TO.N,GND*%
X42725000Y-54502500D03*
%TO.P,UTB1,8*%
%TO.N,Net-(R3Oi1-Pad2)*%
X50345000Y-54502500D03*
%TO.P,UTB1,9*%
%TO.N,Net-(R3i1-Pad2)*%
X50345000Y-51962500D03*
%TO.P,UTB1,10*%
%TO.N,GND*%
X50345000Y-49422500D03*
%TO.P,UTB1,11*%
%TO.N,Net-(R1Oi1-Pad2)*%
X50345000Y-46882500D03*
%TO.P,UTB1,12*%
%TO.N,Net-(R1i1-Pad1)*%
X50345000Y-44342500D03*
%TO.P,UTB1,13*%
%TO.N,GND*%
X50345000Y-41802500D03*
%TO.P,UTB1,14,VCC*%
%TO.N,+5P*%
X50345000Y-39262500D03*
%TD*%
D12*
%TO.P,C3,1*%
%TO.N,Net-(LS1-Bin)*%
X79710000Y-68012500D03*
%TO.P,C3,2*%
%TO.N,GNDREF*%
X74710000Y-68012500D03*
%TD*%
D13*
%TO.P,UNG1,1*%
%TO.N,unconnected-(UNG1-Pad1)*%
X89125000Y-38837500D03*
D14*
%TO.P,UNG1,2*%
%TO.N,unconnected-(UNG1-Pad2)*%
X89125000Y-41377500D03*
%TO.P,UNG1,3*%
%TO.N,unconnected-(UNG1-Pad3)*%
X89125000Y-43917500D03*
%TO.P,UNG1,4*%
%TO.N,unconnected-(UNG1-Pad4)*%
X89125000Y-46457500D03*
%TO.P,UNG1,5*%
%TO.N,unconnected-(UNG1-Pad5)*%
X89125000Y-48997500D03*
%TO.P,UNG1,6*%
%TO.N,unconnected-(UNG1-Pad6)*%
X89125000Y-51537500D03*
%TO.P,UNG1,7,GND*%
%TO.N,GNDREF*%
X89125000Y-54077500D03*
%TO.P,UNG1,8*%
%TO.N,Net-(LS1-Cin)*%
X96745000Y-54077500D03*
%TO.P,UNG1,9*%
%TO.N,Net-(LS1-Bin)*%
X96745000Y-51537500D03*
%TO.P,UNG1,10*%
%TO.N,Net-(LS1-Din)*%
X96745000Y-48997500D03*
%TO.P,UNG1,11*%
%TO.N,Net-(LS1-Ein)*%
X96745000Y-46457500D03*
%TO.P,UNG1,12*%
%TO.N,Net-(LS1-Fin)*%
X96745000Y-43917500D03*
%TO.P,UNG1,13*%
%TO.N,Net-(LS1-Ain)*%
X96745000Y-41377500D03*
%TO.P,UNG1,14,VCC*%
%TO.N,+5V*%
X96745000Y-38837500D03*
%TD*%
D10*
%TO.P,R3Oi1,1*%
%TO.N,Net-(Opt3-A)*%
X61625000Y-62787500D03*
D11*
%TO.P,R3Oi1,2*%
%TO.N,Net-(R3Oi1-Pad2)*%
X56545000Y-62787500D03*
%TD*%
D10*
%TO.P,R2i1,1*%
%TO.N,Net-(R2i1-Pad1)*%
X36815000Y-45987500D03*
D11*
%TO.P,R2i1,2*%
%TO.N,Net-(J_IN1-Pin_3)*%
X31735000Y-45987500D03*
%TD*%
D12*
%TO.P,C7,1*%
%TO.N,+5V*%
X94550000Y-33462500D03*
%TO.P,C7,2*%
%TO.N,GNDREF*%
X89550000Y-33462500D03*
%TD*%
D17*
%TO.N,+5P*%
X29900000Y-34962500D02*
X29900000Y-32612500D01*
X29900000Y-32612500D02*
X31425000Y-31087500D01*
X50345000Y-35357500D02*
X50345000Y-39262500D01*
X31425000Y-31087500D02*
X46075000Y-31087500D01*
X46075000Y-31087500D02*
X50345000Y-35357500D01*
X28875000Y-35987500D02*
X29900000Y-34962500D01*
X22020000Y-35987500D02*
X28875000Y-35987500D01*
%TO.N,Net-(LS1-Bin)*%
X102425000Y-50762500D02*
X102425000Y-48437500D01*
X103090000Y-47772500D02*
X107625000Y-47772500D01*
X96745000Y-51537500D02*
X101650000Y-51537500D01*
X101650000Y-51537500D02*
X102425000Y-50762500D01*
X102425000Y-48437500D02*
X103090000Y-47772500D01*
D18*
%TO.N,Net-(JA1-Pin_2)*%
X118600000Y-38887500D02*
X118600000Y-31037500D01*
X115245000Y-40152500D02*
X117335000Y-40152500D01*
X118600000Y-31037500D02*
X115375000Y-27812500D01*
X115375000Y-27812500D02*
X115375000Y-23542500D01*
X117335000Y-40152500D02*
X118600000Y-38887500D01*
%TO.N,Net-(JA1-Pin_3)*%
X109085000Y-40152500D02*
X110375000Y-38862500D01*
X110375000Y-38862500D02*
X110375000Y-23542500D01*
X107625000Y-40152500D02*
X109085000Y-40152500D01*
%TO.N,Net-(JB1-Pin_2)*%
X121635000Y-52852500D02*
X126700000Y-47787500D01*
X126700000Y-47787500D02*
X129525000Y-47787500D01*
X115245000Y-52852500D02*
X121635000Y-52852500D01*
%TO.N,Net-(JB1-Pin_3)*%
X115245000Y-47772500D02*
X119740000Y-47772500D01*
X124725000Y-42787500D02*
X129525000Y-42787500D01*
X119740000Y-47772500D02*
X124725000Y-42787500D01*
%TO.N,Net-(JC1-Pin_2)*%
X110100000Y-68312500D02*
X110375000Y-68587500D01*
X107625000Y-50312500D02*
X109225000Y-50312500D01*
X110100000Y-51187500D02*
X110100000Y-68312500D01*
X109225000Y-50312500D02*
X110100000Y-51187500D01*
%TO.N,Net-(JC1-Pin_3)*%
X113025000Y-46662500D02*
X113025000Y-60037500D01*
X107625000Y-45232500D02*
X111595000Y-45232500D01*
X113025000Y-60037500D02*
X115375000Y-62387500D01*
X115375000Y-62387500D02*
X115375000Y-68587500D01*
X111595000Y-45232500D02*
X113025000Y-46662500D01*
D17*
%TO.N,Net-(J_IN1-Pin_2)*%
X22020000Y-40987500D02*
X33925000Y-40987500D01*
D18*
%TO.N,+5V*%
X96745000Y-38837500D02*
X96745000Y-33587500D01*
X69650000Y-20137500D02*
X91200000Y-20137500D01*
D17*
X68275000Y-43037500D02*
X68050000Y-43262500D01*
D18*
X68050000Y-43262500D02*
X68050000Y-25912500D01*
X92368356Y-26780856D02*
X93375000Y-27787500D01*
D17*
X94550000Y-33462500D02*
X96620000Y-33462500D01*
D18*
X96745000Y-33587500D02*
X96745000Y-28182500D01*
X91200000Y-20137500D02*
X92368356Y-21305856D01*
X96745000Y-28182500D02*
X96350000Y-27787500D01*
D17*
X96620000Y-33462500D02*
X96745000Y-33587500D01*
D18*
X68050000Y-21737500D02*
X69650000Y-20137500D01*
X71925000Y-43037500D02*
X68275000Y-43037500D01*
X68050000Y-59837500D02*
X68050000Y-43262500D01*
X92368356Y-23438279D02*
X92368356Y-26780856D01*
X107625000Y-32487500D02*
X107625000Y-37612500D01*
X71925000Y-25862500D02*
X68100000Y-25862500D01*
D17*
X68100000Y-25862500D02*
X68050000Y-25912500D01*
D18*
X68460000Y-60247500D02*
X68050000Y-59837500D01*
X71925000Y-60247500D02*
X68460000Y-60247500D01*
X68050000Y-25912500D02*
X68050000Y-21737500D01*
X92368356Y-21305856D02*
X92368356Y-23438279D01*
X102925000Y-27787500D02*
X107625000Y-32487500D01*
X93375000Y-27787500D02*
X102925000Y-27787500D01*
D17*
%TO.N,Net-(J_IN1-Pin_3)*%
X22020000Y-45987500D02*
X31735000Y-45987500D01*
%TO.N,Net-(J_IN1-Pin_4)*%
X22020000Y-50987500D02*
X33925000Y-50987500D01*
%TO.N,Net-(LS1-Cin)*%
X104275000Y-52787500D02*
X107560000Y-52787500D01*
X103300000Y-53762500D02*
X104275000Y-52787500D01*
X107560000Y-52787500D02*
X107625000Y-52852500D01*
X97060000Y-53762500D02*
X103300000Y-53762500D01*
X96745000Y-54077500D02*
X97060000Y-53762500D01*
%TO.N,Net-(R1i1-Pad1)*%
X44450000Y-34462500D02*
X47600000Y-37612500D01*
X47600000Y-37612500D02*
X47600000Y-42937500D01*
X35370000Y-34462500D02*
X44450000Y-34462500D01*
X47600000Y-42937500D02*
X49005000Y-44342500D01*
X49005000Y-44342500D02*
X50345000Y-44342500D01*
X33925000Y-35907500D02*
X35370000Y-34462500D01*
%TO.N,Net-(R2i1-Pad1)*%
X38875000Y-45987500D02*
X39575000Y-45287500D01*
X36815000Y-45987500D02*
X38875000Y-45987500D01*
X39575000Y-45287500D02*
X39575000Y-42537500D01*
X40310000Y-41802500D02*
X42725000Y-41802500D01*
X39575000Y-42537500D02*
X40310000Y-41802500D01*
%TO.N,Net-(R2Oi1-Pad2)*%
X46275000Y-57062500D02*
X48100000Y-58887500D01*
X46055000Y-44342500D02*
X46275000Y-44562500D01*
X48100000Y-58887500D02*
X54150000Y-58887500D01*
X42725000Y-44342500D02*
X46055000Y-44342500D01*
X46275000Y-44562500D02*
X46275000Y-57062500D01*
X56545000Y-56492500D02*
X56545000Y-45577500D01*
X54150000Y-58887500D02*
X56545000Y-56492500D01*
%TD*%
%TA.AperFunction,Conductor*%
%TO.N,GNDREF*%
G36*
X129364930Y-18238358D02*
G01*
X129521824Y-18256927D01*
X129527581Y-18257748D01*
X129620464Y-18273248D01*
X129624177Y-18273927D01*
X129992054Y-18347103D01*
X129998191Y-18348489D01*
X130081292Y-18369533D01*
X130084499Y-18370391D01*
X130165480Y-18393229D01*
X130454195Y-18474655D01*
X130460740Y-18476699D01*
X130529007Y-18500136D01*
X130531467Y-18501011D01*
X130905210Y-18638893D01*
X130912079Y-18641665D01*
X130957997Y-18661807D01*
X130960080Y-18662743D01*
X131042190Y-18700596D01*
X131342013Y-18838816D01*
X131349109Y-18842367D01*
X131353247Y-18844606D01*
X131361196Y-18848907D01*
X131362586Y-18849673D01*
X131755483Y-19069707D01*
X131763767Y-19074782D01*
X132147367Y-19331096D01*
X132155243Y-19336819D01*
X132517539Y-19622429D01*
X132524937Y-19628747D01*
X132863715Y-19941911D01*
X132870588Y-19948784D01*
X133031818Y-20123201D01*
X133183747Y-20287556D01*
X133190070Y-20294960D01*
X133475680Y-20657256D01*
X133481403Y-20665132D01*
X133737704Y-21048714D01*
X133742791Y-21057016D01*
X133962789Y-21449850D01*
X133963656Y-21451425D01*
X133970128Y-21463385D01*
X133973682Y-21470485D01*
X134149746Y-21852398D01*
X134150691Y-21854501D01*
X134170833Y-21900419D01*
X134173614Y-21907311D01*
X134311461Y-22280960D01*
X134312407Y-22283617D01*
X134335786Y-22351719D01*
X134337849Y-22358323D01*
X134442107Y-22727999D01*
X134442967Y-22731215D01*
X134463995Y-22814247D01*
X134465407Y-22820498D01*
X134538564Y-23188288D01*
X134539256Y-23192068D01*
X134554747Y-23284895D01*
X134555577Y-23290723D01*
X134565857Y-23377573D01*
X134599018Y-23657750D01*
X134599453Y-23662083D01*
X134607603Y-23760432D01*
X134607931Y-23765805D01*
X134624404Y-24185056D01*
X134624500Y-24189924D01*
X134624500Y-67685075D01*
X134624404Y-67689943D01*
X134607931Y-68109193D01*
X134607603Y-68114566D01*
X134599453Y-68212915D01*
X134599018Y-68217248D01*
X134555579Y-68584266D01*
X134554747Y-68590103D01*
X134539256Y-68682930D01*
X134538564Y-68686710D01*
X134465407Y-69054500D01*
X134463995Y-69060751D01*
X134442967Y-69143783D01*
X134442107Y-69146999D01*
X134337849Y-69516675D01*
X134335786Y-69523279D01*
X134312407Y-69591381D01*
X134311461Y-69594038D01*
X134173614Y-69967687D01*
X134170833Y-69974579D01*
X134150691Y-70020497D01*
X134149746Y-70022600D01*
X133973682Y-70404513D01*
X133970128Y-70411613D01*
X133963656Y-70423573D01*
X133962790Y-70425148D01*
X133742792Y-70817983D01*
X133737704Y-70826285D01*
X133481403Y-71209867D01*
X133475680Y-71217743D01*
X133190070Y-71580039D01*
X133183747Y-71587443D01*
X132870594Y-71926209D01*
X132863709Y-71933094D01*
X132524943Y-72246247D01*
X132517539Y-72252570D01*
X132155243Y-72538180D01*
X132147367Y-72543903D01*
X131763785Y-72800204D01*
X131755483Y-72805292D01*
X131362648Y-73025290D01*
X131361073Y-73026156D01*
X131349113Y-73032628D01*
X131342013Y-73036182D01*
X130960100Y-73212246D01*
X130957997Y-73213191D01*
X130912079Y-73233333D01*
X130905187Y-73236114D01*
X130531538Y-73373961D01*
X130528881Y-73374907D01*
X130460779Y-73398286D01*
X130454175Y-73400349D01*
X130084499Y-73504607D01*
X130081283Y-73505467D01*
X129998251Y-73526495D01*
X129992000Y-73527907D01*
X129624210Y-73601064D01*
X129620430Y-73601756D01*
X129527603Y-73617247D01*
X129521766Y-73618079D01*
X129154748Y-73661518D01*
X129150415Y-73661953D01*
X129052066Y-73670103D01*
X129046693Y-73670431D01*
X128627443Y-73686904D01*
X128622575Y-73687000D01*
X67849000Y-73687000D01*
X67781961Y-73667315D01*
X67736206Y-73614511D01*
X67725000Y-73563000D01*
X67725000Y-67886538D01*
X78109500Y-67886538D01*
X78109500Y-68138461D01*
X78148910Y-68387285D01*
X78226760Y-68626883D01*
X78341132Y-68851348D01*
X78489201Y-69055149D01*
X78489205Y-69055154D01*
X78667345Y-69233294D01*
X78667350Y-69233298D01*
X78709790Y-69264132D01*
X78871155Y-69381370D01*
X79014184Y-69454247D01*
X79095616Y-69495739D01*
X79095618Y-69495739D01*
X79095621Y-69495741D01*
X79335215Y-69573590D01*
X79584038Y-69613000D01*
X79584039Y-69613000D01*
X79835961Y-69613000D01*
X79835962Y-69613000D01*
X80084785Y-69573590D01*
X80324379Y-69495741D01*
X80548845Y-69381370D01*
X80752656Y-69233293D01*
X80930793Y-69055156D01*
X81078870Y-68851345D01*
X81193241Y-68626879D01*
X81271090Y-68387285D01*
X81310500Y-68138462D01*
X81310500Y-67886538D01*
X81271090Y-67637715D01*
X81193241Y-67398121D01*
X81193239Y-67398118D01*
X81193239Y-67398116D01*
X81114239Y-67243071D01*
X81078870Y-67173655D01*
X81037175Y-67116266D01*
X80930798Y-66969850D01*
X80930794Y-66969845D01*
X80752654Y-66791705D01*
X80752649Y-66791701D01*
X80548848Y-66643632D01*
X80548847Y-66643631D01*
X80548845Y-66643630D01*
X80451841Y-66594204D01*
X80324383Y-66529260D01*
X80084785Y-66451410D01*
X79835962Y-66412000D01*
X79584038Y-66412000D01*
X79459626Y-66431705D01*
X79335214Y-66451410D01*
X79095616Y-66529260D01*
X78871151Y-66643632D01*
X78667350Y-66791701D01*
X78667345Y-66791705D01*
X78489205Y-66969845D01*
X78489201Y-66969850D01*
X78341132Y-67173651D01*
X78226760Y-67398116D01*
X78148910Y-67637714D01*
X78109500Y-67886538D01*
X67725000Y-67886538D01*
X67725000Y-61809646D01*
X67744685Y-61742607D01*
X67797489Y-61696852D01*
X67866647Y-61686908D01*
X67887310Y-61691713D01*
X68096924Y-61759821D01*
X68337973Y-61798000D01*
X70430543Y-61798000D01*
X70497582Y-61817685D01*
X70543337Y-61870489D01*
X70553281Y-61939647D01*
X70541028Y-61978295D01*
X70441760Y-62173116D01*
X70363910Y-62412714D01*
X70363910Y-62412715D01*
X70324500Y-62661538D01*
X70324500Y-62913462D01*
X70360201Y-63138868D01*
X70363910Y-63162285D01*
X70441760Y-63401883D01*
X70520413Y-63556247D01*
X70544829Y-63604166D01*
X70556132Y-63626348D01*
X70704201Y-63830149D01*
X70704205Y-63830154D01*
X70843870Y-63969819D01*
X70877355Y-64031142D01*
X70872371Y-64100834D01*
X70843870Y-64145181D01*
X70704205Y-64284845D01*
X70704201Y-64284850D01*
X70556132Y-64488651D01*
X70441760Y-64713116D01*
X70363910Y-64952714D01*
X70324500Y-65201538D01*
X70324500Y-65453461D01*
X70363910Y-65702285D01*
X70441760Y-65941883D01*
X70556132Y-66166348D01*
X70704201Y-66370149D01*
X70704205Y-66370154D01*
X70882345Y-66548294D01*
X70882350Y-66548298D01*
X71013564Y-66643630D01*
X71086155Y-66696370D01*
X71229184Y-66769247D01*
X71310616Y-66810739D01*
X71310618Y-66810739D01*
X71310621Y-66810741D01*
X71550215Y-66888590D01*
X71799038Y-66928000D01*
X71799039Y-66928000D01*
X72050961Y-66928000D01*
X72050962Y-66928000D01*
X72299785Y-66888590D01*
X72539379Y-66810741D01*
X72763845Y-66696370D01*
X72967656Y-66548293D01*
X73145793Y-66370156D01*
X73293870Y-66166345D01*
X73408241Y-65941879D01*
X73486090Y-65702285D01*
X73525500Y-65453462D01*
X73525500Y-65201538D01*
X73486090Y-64952715D01*
X73408241Y-64713121D01*
X73408239Y-64713118D01*
X73408239Y-64713116D01*
X73366747Y-64631684D01*
X73293870Y-64488655D01*
X73274952Y-64462617D01*
X73145798Y-64284850D01*
X73145794Y-64284845D01*
X73006130Y-64145181D01*
X72972645Y-64083858D01*
X72977629Y-64014166D01*
X73006130Y-63969819D01*
X73043935Y-63932014D01*
X73145793Y-63830156D01*
X73278987Y-63646829D01*
X73334314Y-63604166D01*
X73403927Y-63598187D01*
X73465723Y-63630792D01*
X73479618Y-63646828D01*
X73565483Y-63765010D01*
X73732490Y-63932017D01*
X73923567Y-64070843D01*
X73982428Y-64100834D01*
X74134003Y-64178066D01*
X74134005Y-64178066D01*
X74134008Y-64178068D01*
X74254412Y-64217189D01*
X74358631Y-64251053D01*
X74591903Y-64288000D01*
X74591908Y-64288000D01*
X74828097Y-64288000D01*
X75061368Y-64251053D01*
X75285992Y-64178068D01*
X75496433Y-64070843D01*
X75687510Y-63932017D01*
X75854517Y-63765010D01*
X75993343Y-63573933D01*
X76100568Y-63363492D01*
X76173553Y-63138868D01*
X76210500Y-62905597D01*
X76210500Y-62669402D01*
X78289500Y-62669402D01*
X78289500Y-62905597D01*
X78326446Y-63138868D01*
X78399433Y-63363496D01*
X78506657Y-63573933D01*
X78645483Y-63765010D01*
X78812490Y-63932017D01*
X79003567Y-64070843D01*
X79062428Y-64100834D01*
X79214003Y-64178066D01*
X79214005Y-64178066D01*
X79214008Y-64178068D01*
X79334412Y-64217189D01*
X79438631Y-64251053D01*
X79671903Y-64288000D01*
X79671908Y-64288000D01*
X79908097Y-64288000D01*
X80141368Y-64251053D01*
X80365992Y-64178068D01*
X80576433Y-64070843D01*
X80767510Y-63932017D01*
X80934517Y-63765010D01*
X81073343Y-63573933D01*
X81180568Y-63363492D01*
X81253553Y-63138868D01*
X81290500Y-62905597D01*
X81290500Y-62669402D01*
X81253553Y-62436131D01*
X81180566Y-62211503D01*
X81124002Y-62100491D01*
X81073343Y-62001067D01*
X80934517Y-61809990D01*
X80767510Y-61642983D01*
X80576433Y-61504157D01*
X80576425Y-61504153D01*
X80365996Y-61396933D01*
X80141368Y-61323946D01*
X79908097Y-61287000D01*
X79908092Y-61287000D01*
X79671908Y-61287000D01*
X79671903Y-61287000D01*
X79438631Y-61323946D01*
X79214003Y-61396933D01*
X79003566Y-61504157D01*
X78894550Y-61583362D01*
X78812490Y-61642983D01*
X78812488Y-61642985D01*
X78812487Y-61642985D01*
X78645485Y-61809987D01*
X78645485Y-61809988D01*
X78645483Y-61809990D01*
X78601528Y-61870489D01*
X78506657Y-62001066D01*
X78399433Y-62211503D01*
X78326446Y-62436131D01*
X78289500Y-62669402D01*
X76210500Y-62669402D01*
X76173553Y-62436131D01*
X76100566Y-62211503D01*
X76044002Y-62100491D01*
X75993343Y-62001067D01*
X75854517Y-61809990D01*
X75687510Y-61642983D01*
X75496433Y-61504157D01*
X75496425Y-61504153D01*
X75418192Y-61464291D01*
X75367396Y-61416316D01*
X75350601Y-61348495D01*
X75373139Y-61282360D01*
X75418191Y-61243322D01*
X75588845Y-61156370D01*
X75792656Y-61008293D01*
X75970793Y-60830156D01*
X76118870Y-60626345D01*
X76233241Y-60401879D01*
X76311090Y-60162285D01*
X76350500Y-59913462D01*
X76350500Y-59661538D01*
X76311090Y-59412715D01*
X76233241Y-59173121D01*
X76233239Y-59173118D01*
X76233239Y-59173116D01*
X76158636Y-59026701D01*
X76118870Y-58948655D01*
X76099952Y-58922617D01*
X75970798Y-58744850D01*
X75970794Y-58744845D01*
X75792654Y-58566705D01*
X75792649Y-58566701D01*
X75588848Y-58418632D01*
X75588847Y-58418631D01*
X75588845Y-58418630D01*
X75518747Y-58382913D01*
X75364383Y-58304260D01*
X75124785Y-58226410D01*
X74875962Y-58187000D01*
X74624038Y-58187000D01*
X74499626Y-58206705D01*
X74375214Y-58226410D01*
X74135616Y-58304260D01*
X73911151Y-58418632D01*
X73707350Y-58566701D01*
X73707345Y-58566705D01*
X73529205Y-58744845D01*
X73529201Y-58744850D01*
X73381132Y-58948651D01*
X73292703Y-59122202D01*
X73244728Y-59172998D01*
X73176907Y-59189793D01*
X73110772Y-59167255D01*
X73094537Y-59153588D01*
X72967654Y-59026705D01*
X72967649Y-59026701D01*
X72763848Y-58878632D01*
X72763847Y-58878631D01*
X72763845Y-58878630D01*
X72693747Y-58842913D01*
X72539383Y-58764260D01*
X72299785Y-58686410D01*
X72242362Y-58677315D01*
X72050962Y-58647000D01*
X71799038Y-58647000D01*
X71674626Y-58666705D01*
X71550214Y-58686410D01*
X71536300Y-58690931D01*
X71497982Y-58697000D01*
X69724500Y-58697000D01*
X69657461Y-58677315D01*
X69611706Y-58624511D01*
X69600500Y-58573000D01*
X69600500Y-50531538D01*
X77984500Y-50531538D01*
X77984500Y-50783461D01*
X78023910Y-51032285D01*
X78101760Y-51271883D01*
X78144580Y-51355921D01*
X78211368Y-51487000D01*
X78216132Y-51496348D01*
X78364201Y-51700149D01*
X78364205Y-51700154D01*
X78542345Y-51878294D01*
X78542350Y-51878298D01*
X78720117Y-52007452D01*
X78746155Y-52026370D01*
X78889184Y-52099247D01*
X78970616Y-52140739D01*
X78970618Y-52140739D01*
X78970621Y-52140741D01*
X79210215Y-52218590D01*
X79459038Y-52258000D01*
X79459039Y-52258000D01*
X79710961Y-52258000D01*
X79710962Y-52258000D01*
X79959785Y-52218590D01*
X80199379Y-52140741D01*
X80423845Y-52026370D01*
X80627656Y-51878293D01*
X80805793Y-51700156D01*
X80953870Y-51496345D01*
X81068241Y-51271879D01*
X81146090Y-51032285D01*
X81185500Y-50783462D01*
X81185500Y-50531538D01*
X81146090Y-50282715D01*
X81068241Y-50043121D01*
X81068239Y-50043118D01*
X81068239Y-50043116D01*
X81014534Y-49937715D01*
X80953870Y-49818655D01*
X80852107Y-49678590D01*
X80805798Y-49614850D01*
X80805794Y-49614845D01*
X80627654Y-49436705D01*
X80627649Y-49436701D01*
X80423848Y-49288632D01*
X80423847Y-49288631D01*
X80423845Y-49288630D01*
X80353747Y-49252913D01*
X80199383Y-49174260D01*
X79959785Y-49096410D01*
X79930092Y-49091707D01*
X79710962Y-49057000D01*
X79459038Y-49057000D01*
X79358019Y-49073000D01*
X79210214Y-49096410D01*
X78970616Y-49174260D01*
X78746151Y-49288632D01*
X78542350Y-49436701D01*
X78542345Y-49436705D01*
X78364205Y-49614845D01*
X78364201Y-49614850D01*
X78216132Y-49818651D01*
X78101760Y-50043116D01*
X78023910Y-50282714D01*
X77984500Y-50531538D01*
X69600500Y-50531538D01*
X69600500Y-44712000D01*
X69620185Y-44644961D01*
X69672989Y-44599206D01*
X69724500Y-44588000D01*
X70430543Y-44588000D01*
X70497582Y-44607685D01*
X70543337Y-44660489D01*
X70553281Y-44729647D01*
X70541028Y-44768295D01*
X70441760Y-44963116D01*
X70363910Y-45202714D01*
X70363910Y-45202715D01*
X70324500Y-45451538D01*
X70324500Y-45703462D01*
X70355562Y-45899577D01*
X70363910Y-45952285D01*
X70441760Y-46191883D01*
X70484202Y-46275179D01*
X70547584Y-46399573D01*
X70556132Y-46416348D01*
X70704201Y-46620149D01*
X70704205Y-46620154D01*
X70843870Y-46759819D01*
X70877355Y-46821142D01*
X70872371Y-46890834D01*
X70843870Y-46935181D01*
X70704205Y-47074845D01*
X70704201Y-47074850D01*
X70556132Y-47278651D01*
X70441760Y-47503116D01*
X70363910Y-47742714D01*
X70324500Y-47991537D01*
X70324500Y-48243461D01*
X70363910Y-48492285D01*
X70441760Y-48731883D01*
X70512919Y-48871538D01*
X70555526Y-48955160D01*
X70556132Y-48956348D01*
X70704201Y-49160149D01*
X70704205Y-49160154D01*
X70882345Y-49338294D01*
X70882350Y-49338298D01*
X71060117Y-49467452D01*
X71086155Y-49486370D01*
X71229184Y-49559247D01*
X71310616Y-49600739D01*
X71310618Y-49600739D01*
X71310621Y-49600741D01*
X71550215Y-49678590D01*
X71799038Y-49718000D01*
X71799039Y-49718000D01*
X72050961Y-49718000D01*
X72050962Y-49718000D01*
X72299785Y-49678590D01*
X72539379Y-49600741D01*
X72763845Y-49486370D01*
X72967656Y-49338293D01*
X73145793Y-49160156D01*
X73293870Y-48956345D01*
X73408241Y-48731879D01*
X73486090Y-48492285D01*
X73525500Y-48243462D01*
X73525500Y-47991538D01*
X73486090Y-47742715D01*
X73408241Y-47503121D01*
X73408239Y-47503118D01*
X73408239Y-47503116D01*
X73354534Y-47397715D01*
X73293870Y-47278655D01*
X73171966Y-47110868D01*
X73145798Y-47074850D01*
X73145794Y-47074845D01*
X73006130Y-46935181D01*
X72972645Y-46873858D01*
X72977629Y-46804166D01*
X73006130Y-46759819D01*
X73043935Y-46722014D01*
X73145793Y-46620156D01*
X73216485Y-46522855D01*
X73271814Y-46480190D01*
X73341427Y-46474211D01*
X73403222Y-46506816D01*
X73417120Y-46522854D01*
X73440483Y-46555010D01*
X73607490Y-46722017D01*
X73798567Y-46860843D01*
X73857428Y-46890834D01*
X74009003Y-46968066D01*
X74009005Y-46968066D01*
X74009008Y-46968068D01*
X74129412Y-47007189D01*
X74233631Y-47041053D01*
X74466903Y-47078000D01*
X74466908Y-47078000D01*
X74703097Y-47078000D01*
X74936368Y-47041053D01*
X75160992Y-46968068D01*
X75371433Y-46860843D01*
X75562510Y-46722017D01*
X75729517Y-46555010D01*
X75868343Y-46363933D01*
X75975568Y-46153492D01*
X76048553Y-45928868D01*
X76062135Y-45843116D01*
X76085500Y-45695597D01*
X76085500Y-45459402D01*
X78164500Y-45459402D01*
X78164500Y-45695597D01*
X78201446Y-45928868D01*
X78274433Y-46153496D01*
X78365151Y-46331538D01*
X78381657Y-46363933D01*
X78520483Y-46555010D01*
X78687490Y-46722017D01*
X78878567Y-46860843D01*
X78937428Y-46890834D01*
X79089003Y-46968066D01*
X79089005Y-46968066D01*
X79089008Y-46968068D01*
X79209412Y-47007189D01*
X79313631Y-47041053D01*
X79546903Y-47078000D01*
X79546908Y-47078000D01*
X79783097Y-47078000D01*
X80016368Y-47041053D01*
X80240992Y-46968068D01*
X80451433Y-46860843D01*
X80642510Y-46722017D01*
X80809517Y-46555010D01*
X80948343Y-46363933D01*
X81055568Y-46153492D01*
X81128553Y-45928868D01*
X81142135Y-45843116D01*
X81165500Y-45695597D01*
X81165500Y-45459402D01*
X81128553Y-45226131D01*
X81087511Y-45099819D01*
X81055568Y-45001508D01*
X81055566Y-45001505D01*
X81055566Y-45001503D01*
X80948342Y-44791066D01*
X80940880Y-44780795D01*
X80809517Y-44599990D01*
X80642510Y-44432983D01*
X80451433Y-44294157D01*
X80420035Y-44278159D01*
X80240996Y-44186933D01*
X80016368Y-44113946D01*
X79783097Y-44077000D01*
X79783092Y-44077000D01*
X79546908Y-44077000D01*
X79546903Y-44077000D01*
X79313631Y-44113946D01*
X79089003Y-44186933D01*
X78878566Y-44294157D01*
X78791128Y-44357685D01*
X78687490Y-44432983D01*
X78687488Y-44432985D01*
X78687487Y-44432985D01*
X78520485Y-44599987D01*
X78520485Y-44599988D01*
X78520483Y-44599990D01*
X78487810Y-44644961D01*
X78381657Y-44791066D01*
X78274433Y-45001503D01*
X78201446Y-45226131D01*
X78164500Y-45459402D01*
X76085500Y-45459402D01*
X76048553Y-45226131D01*
X76007511Y-45099819D01*
X75975568Y-45001508D01*
X75975566Y-45001505D01*
X75975566Y-45001503D01*
X75868342Y-44791066D01*
X75860880Y-44780795D01*
X75729517Y-44599990D01*
X75562510Y-44432983D01*
X75371433Y-44294157D01*
X75371432Y-44294156D01*
X75371430Y-44294155D01*
X75340037Y-44278159D01*
X75289241Y-44230184D01*
X75272447Y-44162363D01*
X75294985Y-44096228D01*
X75340038Y-44057190D01*
X75488845Y-43981370D01*
X75692656Y-43833293D01*
X75870793Y-43655156D01*
X76018870Y-43451345D01*
X76133241Y-43226879D01*
X76211090Y-42987285D01*
X76250500Y-42738462D01*
X76250500Y-42486538D01*
X76211090Y-42237715D01*
X76133241Y-41998121D01*
X76133239Y-41998118D01*
X76133239Y-41998116D01*
X76091747Y-41916684D01*
X76018870Y-41773655D01*
X75928917Y-41649845D01*
X75870798Y-41569850D01*
X75870794Y-41569845D01*
X75692654Y-41391705D01*
X75692649Y-41391701D01*
X75488848Y-41243632D01*
X75488847Y-41243631D01*
X75488845Y-41243630D01*
X75412774Y-41204870D01*
X75264383Y-41129260D01*
X75024785Y-41051410D01*
X74935389Y-41037251D01*
X74775962Y-41012000D01*
X74524038Y-41012000D01*
X74399626Y-41031705D01*
X74275214Y-41051410D01*
X74035616Y-41129260D01*
X73811151Y-41243632D01*
X73607350Y-41391701D01*
X73607345Y-41391705D01*
X73429205Y-41569845D01*
X73429201Y-41569850D01*
X73281132Y-41773651D01*
X73238271Y-41857770D01*
X73190296Y-41908566D01*
X73122475Y-41925361D01*
X73056340Y-41902823D01*
X73040105Y-41889156D01*
X72967654Y-41816705D01*
X72967649Y-41816701D01*
X72763848Y-41668632D01*
X72763847Y-41668631D01*
X72763845Y-41668630D01*
X72693747Y-41632913D01*
X72539383Y-41554260D01*
X72299785Y-41476410D01*
X72204978Y-41461394D01*
X72050962Y-41437000D01*
X71799038Y-41437000D01*
X71674626Y-41456705D01*
X71550214Y-41476410D01*
X71536300Y-41480931D01*
X71497982Y-41487000D01*
X69724500Y-41487000D01*
X69657461Y-41467315D01*
X69611706Y-41414511D01*
X69600500Y-41363000D01*
X69600500Y-37992539D01*
X87524500Y-37992539D01*
X87524500Y-39682460D01*
X87539630Y-39816749D01*
X87539631Y-39816754D01*
X87599211Y-39987023D01*
X87695184Y-40139762D01*
X87823453Y-40268031D01*
X87856938Y-40329354D01*
X87851954Y-40399046D01*
X87836091Y-40428597D01*
X87756129Y-40538655D01*
X87641760Y-40763116D01*
X87563910Y-41002714D01*
X87524500Y-41251538D01*
X87524500Y-41503461D01*
X87563910Y-41752285D01*
X87641760Y-41991883D01*
X87756132Y-42216348D01*
X87904201Y-42420149D01*
X87904205Y-42420154D01*
X88043870Y-42559819D01*
X88077355Y-42621142D01*
X88072371Y-42690834D01*
X88043870Y-42735181D01*
X87904205Y-42874845D01*
X87904201Y-42874850D01*
X87756132Y-43078651D01*
X87641760Y-43303116D01*
X87589443Y-43464132D01*
X87563910Y-43542715D01*
X87524500Y-43791538D01*
X87524500Y-44043462D01*
X87535664Y-44113946D01*
X87563910Y-44292285D01*
X87641760Y-44531883D01*
X87756132Y-44756348D01*
X87904201Y-44960149D01*
X87904205Y-44960154D01*
X88043870Y-45099819D01*
X88077355Y-45161142D01*
X88072371Y-45230834D01*
X88043870Y-45275181D01*
X87904205Y-45414845D01*
X87904201Y-45414850D01*
X87756132Y-45618651D01*
X87641760Y-45843116D01*
X87623415Y-45899577D01*
X87563910Y-46082715D01*
X87524500Y-46331538D01*
X87524500Y-46583462D01*
X87530312Y-46620156D01*
X87563910Y-46832285D01*
X87641760Y-47071883D01*
X87685701Y-47158121D01*
X87747114Y-47278651D01*
X87756132Y-47296348D01*
X87904201Y-47500149D01*
X87904205Y-47500154D01*
X88043870Y-47639819D01*
X88077355Y-47701142D01*
X88072371Y-47770834D01*
X88043870Y-47815181D01*
X87904205Y-47954845D01*
X87904201Y-47954850D01*
X87756132Y-48158651D01*
X87641760Y-48383116D01*
X87563910Y-48622714D01*
X87546620Y-48731879D01*
X87524500Y-48871538D01*
X87524500Y-49123462D01*
X87536147Y-49197000D01*
X87563910Y-49372285D01*
X87641760Y-49611883D01*
X87685701Y-49698121D01*
X87747114Y-49818651D01*
X87756132Y-49836348D01*
X87904201Y-50040149D01*
X87904205Y-50040154D01*
X88043870Y-50179819D01*
X88077355Y-50241142D01*
X88072371Y-50310834D01*
X88043870Y-50355181D01*
X87904205Y-50494845D01*
X87904201Y-50494850D01*
X87756132Y-50698651D01*
X87641760Y-50923116D01*
X87594998Y-51067035D01*
X87563910Y-51162715D01*
X87524500Y-51411538D01*
X87524500Y-51663462D01*
X87530312Y-51700156D01*
X87563910Y-51912285D01*
X87641760Y-52151883D01*
X87756132Y-52376348D01*
X87904201Y-52580149D01*
X87904205Y-52580154D01*
X88082345Y-52758294D01*
X88082350Y-52758298D01*
X88260117Y-52887452D01*
X88286155Y-52906370D01*
X88429184Y-52979247D01*
X88510616Y-53020739D01*
X88510618Y-53020739D01*
X88510621Y-53020741D01*
X88750215Y-53098590D01*
X88999038Y-53138000D01*
X88999039Y-53138000D01*
X89250961Y-53138000D01*
X89250962Y-53138000D01*
X89499785Y-53098590D01*
X89739379Y-53020741D01*
X89963845Y-52906370D01*
X90167656Y-52758293D01*
X90345793Y-52580156D01*
X90493870Y-52376345D01*
X90608241Y-52151879D01*
X90686090Y-51912285D01*
X90725500Y-51663462D01*
X90725500Y-51411538D01*
X90686090Y-51162715D01*
X90608241Y-50923121D01*
X90608239Y-50923118D01*
X90608239Y-50923116D01*
X90537081Y-50783462D01*
X90493870Y-50698655D01*
X90372453Y-50531538D01*
X90345798Y-50494850D01*
X90345794Y-50494845D01*
X90206130Y-50355181D01*
X90172645Y-50293858D01*
X90177629Y-50224166D01*
X90206130Y-50179819D01*
X90272949Y-50113000D01*
X90345793Y-50040156D01*
X90493870Y-49836345D01*
X90608241Y-49611879D01*
X90686090Y-49372285D01*
X90725500Y-49123462D01*
X90725500Y-48871538D01*
X90686090Y-48622715D01*
X90608241Y-48383121D01*
X90608239Y-48383118D01*
X90608239Y-48383116D01*
X90537081Y-48243462D01*
X90493870Y-48158655D01*
X90372452Y-47991537D01*
X90345798Y-47954850D01*
X90345794Y-47954845D01*
X90206130Y-47815181D01*
X90172645Y-47753858D01*
X90177629Y-47684166D01*
X90206130Y-47639819D01*
X90255671Y-47590278D01*
X90345793Y-47500156D01*
X90493870Y-47296345D01*
X90608241Y-47071879D01*
X90686090Y-46832285D01*
X90725500Y-46583462D01*
X90725500Y-46331538D01*
X90686090Y-46082715D01*
X90608241Y-45843121D01*
X90608239Y-45843118D01*
X90608239Y-45843116D01*
X90537081Y-45703462D01*
X90493870Y-45618655D01*
X90378171Y-45459408D01*
X90345798Y-45414850D01*
X90345794Y-45414845D01*
X90206130Y-45275181D01*
X90172645Y-45213858D01*
X90177629Y-45144166D01*
X90206130Y-45099819D01*
X90214325Y-45091624D01*
X90345793Y-44960156D01*
X90493870Y-44756345D01*
X90608241Y-44531879D01*
X90686090Y-44292285D01*
X90725500Y-44043462D01*
X90725500Y-43791538D01*
X90686090Y-43542715D01*
X90608241Y-43303121D01*
X90608239Y-43303118D01*
X90608239Y-43303116D01*
X90554758Y-43198155D01*
X90493870Y-43078655D01*
X90427486Y-42987285D01*
X90345798Y-42874850D01*
X90345794Y-42874845D01*
X90206130Y-42735181D01*
X90172645Y-42673858D01*
X90177629Y-42604166D01*
X90206130Y-42559819D01*
X90345793Y-42420156D01*
X90493870Y-42216345D01*
X90608241Y-41991879D01*
X90686090Y-41752285D01*
X90725500Y-41503462D01*
X90725500Y-41251538D01*
X90686090Y-41002715D01*
X90608241Y-40763121D01*
X90608239Y-40763118D01*
X90608239Y-40763116D01*
X90566747Y-40681684D01*
X90493870Y-40538655D01*
X90483408Y-40524256D01*
X90413909Y-40428597D01*
X90390429Y-40362791D01*
X90406255Y-40294737D01*
X90426546Y-40268030D01*
X90427256Y-40267319D01*
X90427262Y-40267316D01*
X90554816Y-40139762D01*
X90650789Y-39987022D01*
X90710368Y-39816755D01*
X90725500Y-39682454D01*
X90725500Y-37992546D01*
X90710368Y-37858245D01*
X90650789Y-37687978D01*
X90626816Y-37649826D01*
X90554815Y-37535237D01*
X90427262Y-37407684D01*
X90274523Y-37311711D01*
X90104254Y-37252131D01*
X90104249Y-37252130D01*
X89969960Y-37237000D01*
X89969954Y-37237000D01*
X88280046Y-37237000D01*
X88280039Y-37237000D01*
X88145750Y-37252130D01*
X88145745Y-37252131D01*
X87975476Y-37311711D01*
X87822737Y-37407684D01*
X87695184Y-37535237D01*
X87599211Y-37687976D01*
X87539631Y-37858245D01*
X87539630Y-37858250D01*
X87524500Y-37992539D01*
X69600500Y-37992539D01*
X69600500Y-33356538D01*
X77984500Y-33356538D01*
X77984500Y-33608461D01*
X78023910Y-33857285D01*
X78101760Y-34096883D01*
X78216132Y-34321348D01*
X78364201Y-34525149D01*
X78364205Y-34525154D01*
X78542345Y-34703294D01*
X78542350Y-34703298D01*
X78718623Y-34831367D01*
X78746155Y-34851370D01*
X78889184Y-34924247D01*
X78970616Y-34965739D01*
X78970618Y-34965739D01*
X78970621Y-34965741D01*
X79210215Y-35043590D01*
X79459038Y-35083000D01*
X79459039Y-35083000D01*
X79710961Y-35083000D01*
X79710962Y-35083000D01*
X79959785Y-35043590D01*
X80199379Y-34965741D01*
X80423845Y-34851370D01*
X80627656Y-34703293D01*
X80805793Y-34525156D01*
X80953870Y-34321345D01*
X81068241Y-34096879D01*
X81146090Y-33857285D01*
X81185500Y-33608462D01*
X81185500Y-33356538D01*
X81146090Y-33107715D01*
X81068241Y-32868121D01*
X81068239Y-32868118D01*
X81068239Y-32868116D01*
X81026747Y-32786684D01*
X80953870Y-32643655D01*
X80852107Y-32503590D01*
X80805798Y-32439850D01*
X80805794Y-32439845D01*
X80627654Y-32261705D01*
X80627649Y-32261701D01*
X80423848Y-32113632D01*
X80423847Y-32113631D01*
X80423845Y-32113630D01*
X80353747Y-32077913D01*
X80199383Y-31999260D01*
X79959785Y-31921410D01*
X79833517Y-31901411D01*
X79710962Y-31882000D01*
X79459038Y-31882000D01*
X79437496Y-31885412D01*
X79210214Y-31921410D01*
X78970616Y-31999260D01*
X78746151Y-32113632D01*
X78542350Y-32261701D01*
X78542345Y-32261705D01*
X78364205Y-32439845D01*
X78364201Y-32439850D01*
X78216132Y-32643651D01*
X78101760Y-32868116D01*
X78023910Y-33107714D01*
X77984500Y-33356538D01*
X69600500Y-33356538D01*
X69600500Y-27537000D01*
X69620185Y-27469961D01*
X69672989Y-27424206D01*
X69724500Y-27413000D01*
X70430543Y-27413000D01*
X70497582Y-27432685D01*
X70543337Y-27485489D01*
X70553281Y-27554647D01*
X70541028Y-27593293D01*
X70537224Y-27600761D01*
X70441760Y-27788116D01*
X70363910Y-28027714D01*
X70324500Y-28276538D01*
X70324500Y-28528461D01*
X70363910Y-28777285D01*
X70441760Y-29016883D01*
X70556132Y-29241348D01*
X70704201Y-29445149D01*
X70704205Y-29445154D01*
X70843870Y-29584819D01*
X70877355Y-29646142D01*
X70872371Y-29715834D01*
X70843870Y-29760181D01*
X70704205Y-29899845D01*
X70704201Y-29899850D01*
X70556132Y-30103651D01*
X70441760Y-30328116D01*
X70363910Y-30567714D01*
X70324500Y-30816538D01*
X70324500Y-31068461D01*
X70363910Y-31317285D01*
X70441760Y-31556883D01*
X70556132Y-31781348D01*
X70704201Y-31985149D01*
X70704205Y-31985154D01*
X70882345Y-32163294D01*
X70882350Y-32163298D01*
X71060117Y-32292452D01*
X71086155Y-32311370D01*
X71229184Y-32384247D01*
X71310616Y-32425739D01*
X71310618Y-32425739D01*
X71310621Y-32425741D01*
X71550215Y-32503590D01*
X71799038Y-32543000D01*
X71799039Y-32543000D01*
X72050961Y-32543000D01*
X72050962Y-32543000D01*
X72299785Y-32503590D01*
X72539379Y-32425741D01*
X72763845Y-32311370D01*
X72967656Y-32163293D01*
X73145793Y-31985156D01*
X73293870Y-31781345D01*
X73408241Y-31556879D01*
X73486090Y-31317285D01*
X73525500Y-31068462D01*
X73525500Y-30816538D01*
X73486090Y-30567715D01*
X73408241Y-30328121D01*
X73408239Y-30328118D01*
X73408239Y-30328116D01*
X73355625Y-30224857D01*
X73293870Y-30103655D01*
X73274952Y-30077617D01*
X73145798Y-29899850D01*
X73145794Y-29899845D01*
X73006130Y-29760181D01*
X72972645Y-29698858D01*
X72977629Y-29629166D01*
X73006130Y-29584819D01*
X73043935Y-29547014D01*
X73145793Y-29445156D01*
X73216485Y-29347855D01*
X73271814Y-29305190D01*
X73341427Y-29299211D01*
X73403222Y-29331816D01*
X73417120Y-29347854D01*
X73440483Y-29380010D01*
X73607490Y-29547017D01*
X73798567Y-29685843D01*
X73857428Y-29715834D01*
X74009003Y-29793066D01*
X74009005Y-29793066D01*
X74009008Y-29793068D01*
X74129412Y-29832189D01*
X74233631Y-29866053D01*
X74466903Y-29903000D01*
X74466908Y-29903000D01*
X74703097Y-29903000D01*
X74936368Y-29866053D01*
X75160992Y-29793068D01*
X75371433Y-29685843D01*
X75562510Y-29547017D01*
X75729517Y-29380010D01*
X75868343Y-29188933D01*
X75975568Y-28978492D01*
X76048553Y-28753868D01*
X76084254Y-28528461D01*
X76085500Y-28520597D01*
X76085500Y-28284402D01*
X78164500Y-28284402D01*
X78164500Y-28520597D01*
X78201446Y-28753868D01*
X78274433Y-28978496D01*
X78343274Y-29113603D01*
X78381657Y-29188933D01*
X78520483Y-29380010D01*
X78687490Y-29547017D01*
X78878567Y-29685843D01*
X78937428Y-29715834D01*
X79089003Y-29793066D01*
X79089005Y-29793066D01*
X79089008Y-29793068D01*
X79209412Y-29832189D01*
X79313631Y-29866053D01*
X79546903Y-29903000D01*
X79546908Y-29903000D01*
X79783097Y-29903000D01*
X80016368Y-29866053D01*
X80240992Y-29793068D01*
X80451433Y-29685843D01*
X80642510Y-29547017D01*
X80809517Y-29380010D01*
X80948343Y-29188933D01*
X81055568Y-28978492D01*
X81128553Y-28753868D01*
X81164254Y-28528461D01*
X81165500Y-28520597D01*
X81165500Y-28284402D01*
X81128553Y-28051131D01*
X81055566Y-27826503D01*
X80948342Y-27616066D01*
X80809517Y-27424990D01*
X80642510Y-27257983D01*
X80451433Y-27119157D01*
X80442360Y-27114534D01*
X80240996Y-27011933D01*
X80016368Y-26938946D01*
X79783097Y-26902000D01*
X79783092Y-26902000D01*
X79546908Y-26902000D01*
X79546903Y-26902000D01*
X79313631Y-26938946D01*
X79089003Y-27011933D01*
X78878566Y-27119157D01*
X78769550Y-27198362D01*
X78687490Y-27257983D01*
X78687488Y-27257985D01*
X78687487Y-27257985D01*
X78520485Y-27424987D01*
X78520485Y-27424988D01*
X78520483Y-27424990D01*
X78487810Y-27469961D01*
X78381657Y-27616066D01*
X78274433Y-27826503D01*
X78201446Y-28051131D01*
X78164500Y-28284402D01*
X76085500Y-28284402D01*
X76048553Y-28051131D01*
X75975566Y-27826503D01*
X75868342Y-27616066D01*
X75729517Y-27424990D01*
X75562510Y-27257983D01*
X75404817Y-27143412D01*
X75362153Y-27088083D01*
X75356174Y-27018469D01*
X75388780Y-26956674D01*
X75421418Y-26932606D01*
X75423845Y-26931370D01*
X75459929Y-26905154D01*
X75627649Y-26783298D01*
X75627647Y-26783298D01*
X75627656Y-26783293D01*
X75805793Y-26605156D01*
X75953870Y-26401345D01*
X76068241Y-26176879D01*
X76146090Y-25937285D01*
X76185500Y-25688462D01*
X76185500Y-25436538D01*
X76146090Y-25187715D01*
X76068241Y-24948121D01*
X76068239Y-24948118D01*
X76068239Y-24948116D01*
X76014411Y-24842473D01*
X75953870Y-24723655D01*
X75934952Y-24697617D01*
X75805798Y-24519850D01*
X75805794Y-24519845D01*
X75627654Y-24341705D01*
X75627649Y-24341701D01*
X75423848Y-24193632D01*
X75423847Y-24193631D01*
X75423845Y-24193630D01*
X75353747Y-24157913D01*
X75199383Y-24079260D01*
X74959785Y-24001410D01*
X74710962Y-23962000D01*
X74459038Y-23962000D01*
X74334626Y-23981705D01*
X74210214Y-24001410D01*
X73970616Y-24079260D01*
X73746151Y-24193632D01*
X73542350Y-24341701D01*
X73542345Y-24341705D01*
X73364205Y-24519845D01*
X73231391Y-24702648D01*
X73176061Y-24745313D01*
X73106447Y-24751292D01*
X73044652Y-24718686D01*
X73043392Y-24717443D01*
X72967654Y-24641705D01*
X72967649Y-24641701D01*
X72763848Y-24493632D01*
X72763847Y-24493631D01*
X72763845Y-24493630D01*
X72693747Y-24457913D01*
X72539383Y-24379260D01*
X72299785Y-24301410D01*
X72242362Y-24292315D01*
X72050962Y-24262000D01*
X71799038Y-24262000D01*
X71674626Y-24281705D01*
X71550214Y-24301410D01*
X71536300Y-24305931D01*
X71497982Y-24312000D01*
X69724500Y-24312000D01*
X69657461Y-24292315D01*
X69611706Y-24239511D01*
X69600500Y-24188000D01*
X69600500Y-22431100D01*
X69620185Y-22364061D01*
X69636819Y-22343419D01*
X70255919Y-21724319D01*
X70317242Y-21690834D01*
X70343600Y-21688000D01*
X85848716Y-21688000D01*
X85915755Y-21707685D01*
X85961510Y-21760489D01*
X85971454Y-21829647D01*
X85942429Y-21893203D01*
X85936397Y-21899681D01*
X85785732Y-22050345D01*
X85785726Y-22050352D01*
X85618110Y-22268795D01*
X85480436Y-22507250D01*
X85480431Y-22507261D01*
X85375060Y-22761648D01*
X85303797Y-23027610D01*
X85303794Y-23027623D01*
X85267857Y-23300594D01*
X85267856Y-23300611D01*
X85267856Y-23575946D01*
X85267857Y-23575963D01*
X85303794Y-23848934D01*
X85303795Y-23848939D01*
X85303796Y-23848945D01*
X85303797Y-23848947D01*
X85375060Y-24114909D01*
X85480431Y-24369296D01*
X85480436Y-24369307D01*
X85540603Y-24473517D01*
X85618107Y-24607758D01*
X85618109Y-24607761D01*
X85618110Y-24607762D01*
X85785726Y-24826205D01*
X85785732Y-24826212D01*
X85980422Y-25020902D01*
X85980428Y-25020907D01*
X86198877Y-25188528D01*
X86352134Y-25277011D01*
X86437327Y-25326198D01*
X86437332Y-25326200D01*
X86437335Y-25326202D01*
X86691724Y-25431574D01*
X86957690Y-25502839D01*
X87230682Y-25538779D01*
X87230689Y-25538779D01*
X87506023Y-25538779D01*
X87506030Y-25538779D01*
X87779022Y-25502839D01*
X88044988Y-25431574D01*
X88299377Y-25326202D01*
X88537835Y-25188528D01*
X88756284Y-25020907D01*
X88950984Y-24826207D01*
X89118605Y-24607758D01*
X89256279Y-24369300D01*
X89361651Y-24114911D01*
X89432916Y-23848945D01*
X89468856Y-23575953D01*
X89468856Y-23300605D01*
X89432916Y-23027613D01*
X89361651Y-22761647D01*
X89256279Y-22507258D01*
X89256277Y-22507255D01*
X89256275Y-22507250D01*
X89155990Y-22333553D01*
X89118605Y-22268800D01*
X88950984Y-22050351D01*
X88950979Y-22050345D01*
X88800315Y-21899681D01*
X88766830Y-21838358D01*
X88771814Y-21768666D01*
X88813686Y-21712733D01*
X88879150Y-21688316D01*
X88887996Y-21688000D01*
X90506400Y-21688000D01*
X90535840Y-21696644D01*
X90565827Y-21703168D01*
X90570842Y-21706922D01*
X90573439Y-21707685D01*
X90594081Y-21724319D01*
X90767179Y-21897417D01*
X90800664Y-21958740D01*
X90795680Y-22028432D01*
X90777874Y-22060584D01*
X90618110Y-22268795D01*
X90480436Y-22507250D01*
X90480431Y-22507261D01*
X90375060Y-22761648D01*
X90303797Y-23027610D01*
X90303794Y-23027623D01*
X90267857Y-23300594D01*
X90267856Y-23300611D01*
X90267856Y-23575946D01*
X90267857Y-23575963D01*
X90303794Y-23848934D01*
X90303795Y-23848939D01*
X90303796Y-23848945D01*
X90303797Y-23848947D01*
X90375060Y-24114909D01*
X90480431Y-24369296D01*
X90480436Y-24369307D01*
X90540603Y-24473517D01*
X90618107Y-24607758D01*
X90618109Y-24607761D01*
X90618110Y-24607762D01*
X90785729Y-24826210D01*
X90787077Y-24827746D01*
X90787334Y-24828301D01*
X90788199Y-24829428D01*
X90787947Y-24829621D01*
X90816485Y-24891125D01*
X90817856Y-24909512D01*
X90817856Y-26902882D01*
X90855952Y-27143413D01*
X90856035Y-27143932D01*
X90931452Y-27376041D01*
X91042148Y-27593295D01*
X91042252Y-27593498D01*
X91185695Y-27790932D01*
X91185699Y-27790937D01*
X92364918Y-28970156D01*
X92364923Y-28970160D01*
X92537136Y-29095279D01*
X92562361Y-29113606D01*
X92779815Y-29224404D01*
X93011924Y-29299821D01*
X93252973Y-29338000D01*
X95070500Y-29338000D01*
X95137539Y-29357685D01*
X95183294Y-29410489D01*
X95194500Y-29462000D01*
X95194500Y-31818373D01*
X95174815Y-31885412D01*
X95122011Y-31931167D01*
X95052853Y-31941111D01*
X95032183Y-31936304D01*
X94924793Y-31901411D01*
X94924786Y-31901410D01*
X94800373Y-31881705D01*
X94675962Y-31862000D01*
X94424038Y-31862000D01*
X94299626Y-31881705D01*
X94175214Y-31901410D01*
X93935616Y-31979260D01*
X93711151Y-32093632D01*
X93507350Y-32241701D01*
X93507345Y-32241705D01*
X93329205Y-32419845D01*
X93329201Y-32419850D01*
X93181132Y-32623651D01*
X93066760Y-32848116D01*
X92988910Y-33087714D01*
X92949500Y-33336538D01*
X92949500Y-33588461D01*
X92988910Y-33837285D01*
X93066760Y-34076883D01*
X93181132Y-34301348D01*
X93329201Y-34505149D01*
X93329205Y-34505154D01*
X93507345Y-34683294D01*
X93507350Y-34683298D01*
X93685117Y-34812452D01*
X93711155Y-34831370D01*
X93854184Y-34904247D01*
X93935616Y-34945739D01*
X93935618Y-34945739D01*
X93935621Y-34945741D01*
X94175215Y-35023590D01*
X94424038Y-35063000D01*
X94424039Y-35063000D01*
X94675961Y-35063000D01*
X94675962Y-35063000D01*
X94924785Y-35023590D01*
X95032183Y-34988693D01*
X95102022Y-34986698D01*
X95161855Y-35022778D01*
X95192684Y-35085479D01*
X95194500Y-35106625D01*
X95194500Y-38410482D01*
X95188431Y-38448800D01*
X95183910Y-38462714D01*
X95163473Y-38591749D01*
X95144500Y-38711538D01*
X95144500Y-38963462D01*
X95178072Y-39175426D01*
X95183910Y-39212285D01*
X95261760Y-39451883D01*
X95305701Y-39538121D01*
X95375660Y-39675423D01*
X95376132Y-39676348D01*
X95524201Y-39880149D01*
X95524205Y-39880154D01*
X95663870Y-40019819D01*
X95697355Y-40081142D01*
X95692371Y-40150834D01*
X95663870Y-40195181D01*
X95524205Y-40334845D01*
X95524201Y-40334850D01*
X95376132Y-40538651D01*
X95261760Y-40763116D01*
X95183910Y-41002714D01*
X95144500Y-41251538D01*
X95144500Y-41503461D01*
X95183910Y-41752285D01*
X95261760Y-41991883D01*
X95376132Y-42216348D01*
X95524201Y-42420149D01*
X95524205Y-42420154D01*
X95663870Y-42559819D01*
X95697355Y-42621142D01*
X95692371Y-42690834D01*
X95663870Y-42735181D01*
X95524205Y-42874845D01*
X95524201Y-42874850D01*
X95376132Y-43078651D01*
X95261760Y-43303116D01*
X95209443Y-43464132D01*
X95183910Y-43542715D01*
X95144500Y-43791538D01*
X95144500Y-44043462D01*
X95155664Y-44113946D01*
X95183910Y-44292285D01*
X95261760Y-44531883D01*
X95376132Y-44756348D01*
X95524201Y-44960149D01*
X95524205Y-44960154D01*
X95663870Y-45099819D01*
X95697355Y-45161142D01*
X95692371Y-45230834D01*
X95663870Y-45275181D01*
X95524205Y-45414845D01*
X95524201Y-45414850D01*
X95376132Y-45618651D01*
X95261760Y-45843116D01*
X95243415Y-45899577D01*
X95183910Y-46082715D01*
X95144500Y-46331538D01*
X95144500Y-46583462D01*
X95150312Y-46620156D01*
X95183910Y-46832285D01*
X95261760Y-47071883D01*
X95305701Y-47158121D01*
X95367114Y-47278651D01*
X95376132Y-47296348D01*
X95524201Y-47500149D01*
X95524205Y-47500154D01*
X95663870Y-47639819D01*
X95697355Y-47701142D01*
X95692371Y-47770834D01*
X95663870Y-47815181D01*
X95524205Y-47954845D01*
X95524201Y-47954850D01*
X95376132Y-48158651D01*
X95261760Y-48383116D01*
X95183910Y-48622714D01*
X95166620Y-48731879D01*
X95144500Y-48871538D01*
X95144500Y-49123462D01*
X95156147Y-49197000D01*
X95183910Y-49372285D01*
X95261760Y-49611883D01*
X95305701Y-49698121D01*
X95367114Y-49818651D01*
X95376132Y-49836348D01*
X95524201Y-50040149D01*
X95524205Y-50040154D01*
X95663870Y-50179819D01*
X95697355Y-50241142D01*
X95692371Y-50310834D01*
X95663870Y-50355181D01*
X95524205Y-50494845D01*
X95524201Y-50494850D01*
X95376132Y-50698651D01*
X95261760Y-50923116D01*
X95214998Y-51067035D01*
X95183910Y-51162715D01*
X95144500Y-51411538D01*
X95144500Y-51663462D01*
X95150312Y-51700156D01*
X95183910Y-51912285D01*
X95261760Y-52151883D01*
X95376132Y-52376348D01*
X95524201Y-52580149D01*
X95524205Y-52580154D01*
X95663870Y-52719819D01*
X95697355Y-52781142D01*
X95692371Y-52850834D01*
X95663870Y-52895181D01*
X95524205Y-53034845D01*
X95524201Y-53034850D01*
X95376132Y-53238651D01*
X95261760Y-53463116D01*
X95183910Y-53702714D01*
X95183910Y-53702715D01*
X95144500Y-53951538D01*
X95144500Y-54203462D01*
X95152931Y-54256695D01*
X95183910Y-54452285D01*
X95261760Y-54691883D01*
X95376132Y-54916348D01*
X95524201Y-55120149D01*
X95524205Y-55120154D01*
X95702345Y-55298294D01*
X95702350Y-55298298D01*
X95880117Y-55427452D01*
X95906155Y-55446370D01*
X96047642Y-55518461D01*
X96130616Y-55560739D01*
X96130618Y-55560739D01*
X96130621Y-55560741D01*
X96370215Y-55638590D01*
X96619038Y-55678000D01*
X96619039Y-55678000D01*
X96870961Y-55678000D01*
X96870962Y-55678000D01*
X97119785Y-55638590D01*
X97359379Y-55560741D01*
X97583845Y-55446370D01*
X97787656Y-55298293D01*
X97965793Y-55120156D01*
X97965795Y-55120152D01*
X97965798Y-55120150D01*
X97970183Y-55114115D01*
X98025512Y-55071449D01*
X98070501Y-55063000D01*
X103402351Y-55063000D01*
X103402352Y-55063000D01*
X103604535Y-55030977D01*
X103720830Y-54993190D01*
X103799219Y-54967720D01*
X103900048Y-54916345D01*
X103981611Y-54874787D01*
X104147219Y-54754466D01*
X104777366Y-54124319D01*
X104838689Y-54090834D01*
X104865047Y-54088000D01*
X106562296Y-54088000D01*
X106629335Y-54107685D01*
X106635181Y-54111682D01*
X106727291Y-54178603D01*
X106786155Y-54221370D01*
X106929184Y-54294247D01*
X107010616Y-54335739D01*
X107010618Y-54335739D01*
X107010621Y-54335741D01*
X107250215Y-54413590D01*
X107499038Y-54453000D01*
X107499039Y-54453000D01*
X107750961Y-54453000D01*
X107750962Y-54453000D01*
X107999785Y-54413590D01*
X108239379Y-54335741D01*
X108369206Y-54269590D01*
X108437874Y-54256695D01*
X108502615Y-54282971D01*
X108542872Y-54340077D01*
X108549500Y-54380076D01*
X108549500Y-67515133D01*
X108532887Y-67577133D01*
X108487080Y-67656471D01*
X108487075Y-67656482D01*
X108381704Y-67910869D01*
X108310441Y-68176831D01*
X108310438Y-68176844D01*
X108274501Y-68449815D01*
X108274500Y-68449832D01*
X108274500Y-68725167D01*
X108274501Y-68725184D01*
X108310438Y-68998155D01*
X108310439Y-68998160D01*
X108310440Y-68998166D01*
X108327210Y-69060751D01*
X108381704Y-69264130D01*
X108487075Y-69518517D01*
X108487080Y-69518528D01*
X108569861Y-69661907D01*
X108624751Y-69756979D01*
X108624753Y-69756982D01*
X108624754Y-69756983D01*
X108792370Y-69975426D01*
X108792376Y-69975433D01*
X108987066Y-70170123D01*
X108987072Y-70170128D01*
X109205521Y-70337749D01*
X109333457Y-70411613D01*
X109443971Y-70475419D01*
X109443976Y-70475421D01*
X109443979Y-70475423D01*
X109698368Y-70580795D01*
X109964334Y-70652060D01*
X110237326Y-70688000D01*
X110237333Y-70688000D01*
X110512667Y-70688000D01*
X110512674Y-70688000D01*
X110785666Y-70652060D01*
X111051632Y-70580795D01*
X111306021Y-70475423D01*
X111544479Y-70337749D01*
X111762928Y-70170128D01*
X111957628Y-69975428D01*
X112125249Y-69756979D01*
X112262923Y-69518521D01*
X112368295Y-69264132D01*
X112439560Y-68998166D01*
X112475500Y-68725174D01*
X112475500Y-68449826D01*
X112439560Y-68176834D01*
X112368295Y-67910868D01*
X112262923Y-67656479D01*
X112262921Y-67656476D01*
X112262919Y-67656471D01*
X112200500Y-67548359D01*
X112125249Y-67418021D01*
X112056099Y-67327903D01*
X111957629Y-67199573D01*
X111957623Y-67199566D01*
X111762933Y-67004876D01*
X111762923Y-67004868D01*
X111699013Y-66955827D01*
X111657811Y-66899399D01*
X111650500Y-66857452D01*
X111650500Y-61155100D01*
X111670185Y-61088061D01*
X111722989Y-61042306D01*
X111792147Y-61032362D01*
X111855703Y-61061387D01*
X111862181Y-61067419D01*
X113788181Y-62993419D01*
X113821666Y-63054742D01*
X113824500Y-63081100D01*
X113824500Y-67116266D01*
X113804815Y-67183305D01*
X113793730Y-67198022D01*
X113792376Y-67199565D01*
X113624754Y-67418016D01*
X113487080Y-67656471D01*
X113487075Y-67656482D01*
X113381704Y-67910869D01*
X113310441Y-68176831D01*
X113310438Y-68176844D01*
X113274501Y-68449815D01*
X113274500Y-68449832D01*
X113274500Y-68725167D01*
X113274501Y-68725184D01*
X113310438Y-68998155D01*
X113310439Y-68998160D01*
X113310440Y-68998166D01*
X113327210Y-69060751D01*
X113381704Y-69264130D01*
X113487075Y-69518517D01*
X113487080Y-69518528D01*
X113569861Y-69661907D01*
X113624751Y-69756979D01*
X113624753Y-69756982D01*
X113624754Y-69756983D01*
X113792370Y-69975426D01*
X113792376Y-69975433D01*
X113987066Y-70170123D01*
X113987072Y-70170128D01*
X114205521Y-70337749D01*
X114333457Y-70411613D01*
X114443971Y-70475419D01*
X114443976Y-70475421D01*
X114443979Y-70475423D01*
X114698368Y-70580795D01*
X114964334Y-70652060D01*
X115237326Y-70688000D01*
X115237333Y-70688000D01*
X115512667Y-70688000D01*
X115512674Y-70688000D01*
X115785666Y-70652060D01*
X116051632Y-70580795D01*
X116306021Y-70475423D01*
X116544479Y-70337749D01*
X116762928Y-70170128D01*
X116957628Y-69975428D01*
X117125249Y-69756979D01*
X117262923Y-69518521D01*
X117368295Y-69264132D01*
X117439560Y-68998166D01*
X117475500Y-68725174D01*
X117475500Y-68449832D01*
X118274500Y-68449832D01*
X118274500Y-68725167D01*
X118274501Y-68725184D01*
X118310438Y-68998155D01*
X118310439Y-68998160D01*
X118310440Y-68998166D01*
X118327210Y-69060751D01*
X118381704Y-69264130D01*
X118487075Y-69518517D01*
X118487080Y-69518528D01*
X118569861Y-69661907D01*
X118624751Y-69756979D01*
X118624753Y-69756982D01*
X118624754Y-69756983D01*
X118792370Y-69975426D01*
X118792376Y-69975433D01*
X118987066Y-70170123D01*
X118987072Y-70170128D01*
X119205521Y-70337749D01*
X119333457Y-70411613D01*
X119443971Y-70475419D01*
X119443976Y-70475421D01*
X119443979Y-70475423D01*
X119698368Y-70580795D01*
X119964334Y-70652060D01*
X120237326Y-70688000D01*
X120237333Y-70688000D01*
X120512667Y-70688000D01*
X120512674Y-70688000D01*
X120785666Y-70652060D01*
X121051632Y-70580795D01*
X121306021Y-70475423D01*
X121544479Y-70337749D01*
X121762928Y-70170128D01*
X121957628Y-69975428D01*
X122125249Y-69756979D01*
X122262923Y-69518521D01*
X122368295Y-69264132D01*
X122439560Y-68998166D01*
X122475500Y-68725174D01*
X122475500Y-68449826D01*
X122439560Y-68176834D01*
X122368295Y-67910868D01*
X122304300Y-67756372D01*
X126624500Y-67756372D01*
X126624500Y-68018627D01*
X126645329Y-68176831D01*
X126658730Y-68278616D01*
X126704607Y-68449832D01*
X126726602Y-68531918D01*
X126726605Y-68531928D01*
X126826953Y-68774190D01*
X126826958Y-68774200D01*
X126958075Y-69001303D01*
X127117718Y-69209351D01*
X127117726Y-69209360D01*
X127303140Y-69394774D01*
X127303148Y-69394781D01*
X127511196Y-69554424D01*
X127738299Y-69685541D01*
X127738309Y-69685546D01*
X127980571Y-69785894D01*
X127980581Y-69785898D01*
X128233884Y-69853770D01*
X128493880Y-69888000D01*
X128493887Y-69888000D01*
X128756113Y-69888000D01*
X128756120Y-69888000D01*
X129016116Y-69853770D01*
X129269419Y-69785898D01*
X129511697Y-69685543D01*
X129738803Y-69554424D01*
X129946851Y-69394782D01*
X129946855Y-69394777D01*
X129946860Y-69394774D01*
X130132274Y-69209360D01*
X130132277Y-69209355D01*
X130132282Y-69209351D01*
X130291924Y-69001303D01*
X130423043Y-68774197D01*
X130523398Y-68531919D01*
X130591270Y-68278616D01*
X130625500Y-68018620D01*
X130625500Y-67756380D01*
X130591270Y-67496384D01*
X130523398Y-67243081D01*
X130523394Y-67243071D01*
X130423046Y-67000809D01*
X130423041Y-67000799D01*
X130291924Y-66773696D01*
X130132281Y-66565648D01*
X130132274Y-66565640D01*
X129946860Y-66380226D01*
X129946851Y-66380218D01*
X129738803Y-66220575D01*
X129511700Y-66089458D01*
X129511690Y-66089453D01*
X129269428Y-65989105D01*
X129269421Y-65989103D01*
X129269419Y-65989102D01*
X129016116Y-65921230D01*
X128958339Y-65913623D01*
X128756127Y-65887000D01*
X128756120Y-65887000D01*
X128493880Y-65887000D01*
X128493872Y-65887000D01*
X128262772Y-65917426D01*
X128233884Y-65921230D01*
X128156821Y-65941879D01*
X127980581Y-65989102D01*
X127980571Y-65989105D01*
X127738309Y-66089453D01*
X127738299Y-66089458D01*
X127511196Y-66220575D01*
X127303148Y-66380218D01*
X127117718Y-66565648D01*
X126958075Y-66773696D01*
X126826958Y-67000799D01*
X126826953Y-67000809D01*
X126726605Y-67243071D01*
X126726602Y-67243081D01*
X126685060Y-67398121D01*
X126658730Y-67496385D01*
X126624500Y-67756372D01*
X122304300Y-67756372D01*
X122262923Y-67656479D01*
X122262921Y-67656476D01*
X122262919Y-67656471D01*
X122200500Y-67548359D01*
X122125249Y-67418021D01*
X122056099Y-67327903D01*
X121957629Y-67199573D01*
X121957623Y-67199566D01*
X121762933Y-67004876D01*
X121762926Y-67004870D01*
X121544483Y-66837254D01*
X121544482Y-66837253D01*
X121544479Y-66837251D01*
X121449407Y-66782361D01*
X121306028Y-66699580D01*
X121306017Y-66699575D01*
X121051630Y-66594204D01*
X120918649Y-66558572D01*
X120785666Y-66522940D01*
X120785660Y-66522939D01*
X120785655Y-66522938D01*
X120512684Y-66487001D01*
X120512679Y-66487000D01*
X120512674Y-66487000D01*
X120237326Y-66487000D01*
X120237320Y-66487000D01*
X120237315Y-66487001D01*
X119964344Y-66522938D01*
X119964337Y-66522939D01*
X119964334Y-66522940D01*
X119908125Y-66538000D01*
X119698369Y-66594204D01*
X119443982Y-66699575D01*
X119443971Y-66699580D01*
X119205516Y-66837254D01*
X118987073Y-67004870D01*
X118987066Y-67004876D01*
X118792376Y-67199566D01*
X118792370Y-67199573D01*
X118624754Y-67418016D01*
X118487080Y-67656471D01*
X118487075Y-67656482D01*
X118381704Y-67910869D01*
X118310441Y-68176831D01*
X118310438Y-68176844D01*
X118274501Y-68449815D01*
X118274500Y-68449832D01*
X117475500Y-68449832D01*
X117475500Y-68449826D01*
X117439560Y-68176834D01*
X117368295Y-67910868D01*
X117262923Y-67656479D01*
X117262921Y-67656476D01*
X117262919Y-67656471D01*
X117200500Y-67548359D01*
X117125249Y-67418021D01*
X117074021Y-67351259D01*
X116957623Y-67199565D01*
X116956270Y-67198022D01*
X116956011Y-67197464D01*
X116955157Y-67196351D01*
X116955406Y-67196159D01*
X116926869Y-67134640D01*
X116925500Y-67116266D01*
X116925500Y-62265473D01*
X116916952Y-62211503D01*
X116887321Y-62024424D01*
X116811904Y-61792315D01*
X116701106Y-61574861D01*
X116623680Y-61468293D01*
X116557660Y-61377423D01*
X116557656Y-61377418D01*
X114611819Y-59431581D01*
X114578334Y-59370258D01*
X114575500Y-59343900D01*
X114575500Y-57028502D01*
X114595185Y-56961463D01*
X114647989Y-56915708D01*
X114717147Y-56905764D01*
X114737810Y-56910568D01*
X114832861Y-56941452D01*
X114870214Y-56953590D01*
X114994626Y-56973295D01*
X115119038Y-56993000D01*
X115119039Y-56993000D01*
X115370961Y-56993000D01*
X115370962Y-56993000D01*
X115619785Y-56953590D01*
X115859379Y-56875741D01*
X116083845Y-56761370D01*
X116287656Y-56613293D01*
X116465793Y-56435156D01*
X116613870Y-56231345D01*
X116728241Y-56006879D01*
X116806090Y-55767285D01*
X116845500Y-55518462D01*
X116845500Y-55266538D01*
X116806090Y-55017715D01*
X116728241Y-54778121D01*
X116728239Y-54778118D01*
X116728239Y-54778116D01*
X116628972Y-54583295D01*
X116616076Y-54514626D01*
X116642352Y-54449885D01*
X116699459Y-54409628D01*
X116739457Y-54403000D01*
X121757026Y-54403000D01*
X121757027Y-54403000D01*
X121998076Y-54364821D01*
X122230185Y-54289404D01*
X122447639Y-54178606D01*
X122645083Y-54035155D01*
X127305919Y-49374319D01*
X127367242Y-49340834D01*
X127393600Y-49338000D01*
X128053766Y-49338000D01*
X128120805Y-49357685D01*
X128135522Y-49368770D01*
X128137065Y-49370123D01*
X128221128Y-49434626D01*
X128355521Y-49537749D01*
X128489055Y-49614845D01*
X128593971Y-49675419D01*
X128593976Y-49675421D01*
X128593979Y-49675423D01*
X128848368Y-49780795D01*
X129114334Y-49852060D01*
X129387326Y-49888000D01*
X129387333Y-49888000D01*
X129662667Y-49888000D01*
X129662674Y-49888000D01*
X129935666Y-49852060D01*
X130201632Y-49780795D01*
X130456021Y-49675423D01*
X130694479Y-49537749D01*
X130912928Y-49370128D01*
X131107628Y-49175428D01*
X131275249Y-48956979D01*
X131412923Y-48718521D01*
X131518295Y-48464132D01*
X131589560Y-48198166D01*
X131625500Y-47925174D01*
X131625500Y-47649826D01*
X131589560Y-47376834D01*
X131518295Y-47110868D01*
X131412923Y-46856479D01*
X131412921Y-46856476D01*
X131412919Y-46856471D01*
X131335289Y-46722014D01*
X131275249Y-46618021D01*
X131155067Y-46461396D01*
X131107629Y-46399573D01*
X131107623Y-46399566D01*
X130912933Y-46204876D01*
X130912926Y-46204870D01*
X130694483Y-46037254D01*
X130694482Y-46037253D01*
X130694479Y-46037251D01*
X130547314Y-45952285D01*
X130456028Y-45899580D01*
X130456017Y-45899575D01*
X130201630Y-45794204D01*
X130068649Y-45758572D01*
X129935666Y-45722940D01*
X129935660Y-45722939D01*
X129935655Y-45722938D01*
X129662684Y-45687001D01*
X129662679Y-45687000D01*
X129662674Y-45687000D01*
X129387326Y-45687000D01*
X129387320Y-45687000D01*
X129387315Y-45687001D01*
X129114344Y-45722938D01*
X129114337Y-45722939D01*
X129114334Y-45722940D01*
X129058125Y-45738000D01*
X128848369Y-45794204D01*
X128593982Y-45899575D01*
X128593971Y-45899580D01*
X128355516Y-46037254D01*
X128137065Y-46204876D01*
X128135522Y-46206230D01*
X128134964Y-46206488D01*
X128133851Y-46207343D01*
X128133659Y-46207093D01*
X128072140Y-46235631D01*
X128053766Y-46237000D01*
X126822027Y-46237000D01*
X126577973Y-46237000D01*
X126522093Y-46245850D01*
X126336927Y-46275178D01*
X126104812Y-46350597D01*
X125887357Y-46461396D01*
X125689923Y-46604839D01*
X125689918Y-46604843D01*
X121029081Y-51265681D01*
X120967758Y-51299166D01*
X120941400Y-51302000D01*
X116739457Y-51302000D01*
X116672418Y-51282315D01*
X116626663Y-51229511D01*
X116616719Y-51160353D01*
X116628972Y-51121705D01*
X116656827Y-51067038D01*
X116728241Y-50926879D01*
X116806090Y-50687285D01*
X116845500Y-50438462D01*
X116845500Y-50186538D01*
X116806090Y-49937715D01*
X116728241Y-49698121D01*
X116728239Y-49698118D01*
X116728239Y-49698116D01*
X116628972Y-49503295D01*
X116616076Y-49434626D01*
X116642352Y-49369885D01*
X116699459Y-49329628D01*
X116739457Y-49323000D01*
X119862026Y-49323000D01*
X119862027Y-49323000D01*
X120103076Y-49284821D01*
X120335185Y-49209404D01*
X120552639Y-49098606D01*
X120750083Y-48955155D01*
X125330919Y-44374319D01*
X125392242Y-44340834D01*
X125418600Y-44338000D01*
X128053766Y-44338000D01*
X128120805Y-44357685D01*
X128135522Y-44368770D01*
X128137065Y-44370123D01*
X128218989Y-44432985D01*
X128355521Y-44537749D01*
X128463331Y-44599993D01*
X128593971Y-44675419D01*
X128593976Y-44675421D01*
X128593979Y-44675423D01*
X128848368Y-44780795D01*
X129114334Y-44852060D01*
X129387326Y-44888000D01*
X129387333Y-44888000D01*
X129662667Y-44888000D01*
X129662674Y-44888000D01*
X129935666Y-44852060D01*
X130201632Y-44780795D01*
X130456021Y-44675423D01*
X130694479Y-44537749D01*
X130912928Y-44370128D01*
X131107628Y-44175428D01*
X131275249Y-43956979D01*
X131412923Y-43718521D01*
X131518295Y-43464132D01*
X131589560Y-43198166D01*
X131625500Y-42925174D01*
X131625500Y-42649826D01*
X131589560Y-42376834D01*
X131518295Y-42110868D01*
X131412923Y-41856479D01*
X131412921Y-41856476D01*
X131412919Y-41856471D01*
X131328138Y-41709628D01*
X131275249Y-41618021D01*
X131155067Y-41461396D01*
X131107629Y-41399573D01*
X131107623Y-41399566D01*
X130912933Y-41204876D01*
X130912926Y-41204870D01*
X130694483Y-41037254D01*
X130694482Y-41037253D01*
X130694479Y-41037251D01*
X130599407Y-40982361D01*
X130456028Y-40899580D01*
X130456017Y-40899575D01*
X130201630Y-40794204D01*
X130068649Y-40758572D01*
X129935666Y-40722940D01*
X129935660Y-40722939D01*
X129935655Y-40722938D01*
X129662684Y-40687001D01*
X129662679Y-40687000D01*
X129662674Y-40687000D01*
X129387326Y-40687000D01*
X129387320Y-40687000D01*
X129387315Y-40687001D01*
X129114344Y-40722938D01*
X129114337Y-40722939D01*
X129114334Y-40722940D01*
X129058125Y-40738000D01*
X128848369Y-40794204D01*
X128593982Y-40899575D01*
X128593971Y-40899580D01*
X128355516Y-41037254D01*
X128137065Y-41204876D01*
X128135522Y-41206230D01*
X128134964Y-41206488D01*
X128133851Y-41207343D01*
X128133659Y-41207093D01*
X128072140Y-41235631D01*
X128053766Y-41237000D01*
X124847027Y-41237000D01*
X124602973Y-41237000D01*
X124561101Y-41243632D01*
X124361927Y-41275178D01*
X124361924Y-41275179D01*
X124178372Y-41334819D01*
X124129812Y-41350597D01*
X123912357Y-41461396D01*
X123714923Y-41604839D01*
X123714918Y-41604843D01*
X119134081Y-46185681D01*
X119072758Y-46219166D01*
X119046400Y-46222000D01*
X116739457Y-46222000D01*
X116672418Y-46202315D01*
X116626663Y-46149511D01*
X116616719Y-46080353D01*
X116628972Y-46041705D01*
X116631242Y-46037251D01*
X116728241Y-45846879D01*
X116806090Y-45607285D01*
X116845500Y-45358462D01*
X116845500Y-45106538D01*
X116806090Y-44857715D01*
X116728241Y-44618121D01*
X116728239Y-44618118D01*
X116728239Y-44618116D01*
X116684299Y-44531879D01*
X116613870Y-44393655D01*
X116540221Y-44292285D01*
X116465798Y-44189850D01*
X116465794Y-44189845D01*
X116326130Y-44050181D01*
X116292645Y-43988858D01*
X116297629Y-43919166D01*
X116326130Y-43874819D01*
X116367656Y-43833293D01*
X116465793Y-43735156D01*
X116613870Y-43531345D01*
X116728241Y-43306879D01*
X116806090Y-43067285D01*
X116845500Y-42818462D01*
X116845500Y-42566538D01*
X116806090Y-42317715D01*
X116728241Y-42078121D01*
X116728239Y-42078118D01*
X116728239Y-42078116D01*
X116650406Y-41925361D01*
X116628971Y-41883294D01*
X116616076Y-41814626D01*
X116642352Y-41749885D01*
X116699459Y-41709628D01*
X116739457Y-41703000D01*
X117457026Y-41703000D01*
X117457027Y-41703000D01*
X117698076Y-41664821D01*
X117930185Y-41589404D01*
X118147639Y-41478606D01*
X118345083Y-41335155D01*
X119782655Y-39897583D01*
X119926106Y-39700139D01*
X120036904Y-39482685D01*
X120112321Y-39250576D01*
X120150500Y-39009527D01*
X120150500Y-38765473D01*
X120150500Y-37649832D01*
X127424500Y-37649832D01*
X127424500Y-37925167D01*
X127424501Y-37925184D01*
X127460438Y-38198155D01*
X127460439Y-38198160D01*
X127460440Y-38198166D01*
X127477260Y-38260939D01*
X127531704Y-38464130D01*
X127637075Y-38718517D01*
X127637080Y-38718528D01*
X127703341Y-38833293D01*
X127774751Y-38956979D01*
X127774753Y-38956982D01*
X127774754Y-38956983D01*
X127942370Y-39175426D01*
X127942376Y-39175433D01*
X128137066Y-39370123D01*
X128137072Y-39370128D01*
X128355521Y-39537749D01*
X128508778Y-39626232D01*
X128593971Y-39675419D01*
X128593976Y-39675421D01*
X128593979Y-39675423D01*
X128848368Y-39780795D01*
X129114334Y-39852060D01*
X129387326Y-39888000D01*
X129387333Y-39888000D01*
X129662667Y-39888000D01*
X129662674Y-39888000D01*
X129935666Y-39852060D01*
X130201632Y-39780795D01*
X130456021Y-39675423D01*
X130694479Y-39537749D01*
X130912928Y-39370128D01*
X131107628Y-39175428D01*
X131275249Y-38956979D01*
X131412923Y-38718521D01*
X131518295Y-38464132D01*
X131589560Y-38198166D01*
X131625500Y-37925174D01*
X131625500Y-37649826D01*
X131589560Y-37376834D01*
X131518295Y-37110868D01*
X131412923Y-36856479D01*
X131412921Y-36856476D01*
X131412919Y-36856471D01*
X131361573Y-36767539D01*
X131275249Y-36618021D01*
X131107628Y-36399572D01*
X131107623Y-36399566D01*
X130912933Y-36204876D01*
X130912926Y-36204870D01*
X130694483Y-36037254D01*
X130694482Y-36037253D01*
X130694479Y-36037251D01*
X130599407Y-35982361D01*
X130456028Y-35899580D01*
X130456017Y-35899575D01*
X130201630Y-35794204D01*
X130068649Y-35758572D01*
X129935666Y-35722940D01*
X129935660Y-35722939D01*
X129935655Y-35722938D01*
X129662684Y-35687001D01*
X129662679Y-35687000D01*
X129662674Y-35687000D01*
X129387326Y-35687000D01*
X129387320Y-35687000D01*
X129387315Y-35687001D01*
X129114344Y-35722938D01*
X129114337Y-35722939D01*
X129114334Y-35722940D01*
X129058125Y-35738000D01*
X128848369Y-35794204D01*
X128593982Y-35899575D01*
X128593971Y-35899580D01*
X128355516Y-36037254D01*
X128137073Y-36204870D01*
X128137066Y-36204876D01*
X127942376Y-36399566D01*
X127942370Y-36399573D01*
X127774754Y-36618016D01*
X127637080Y-36856471D01*
X127637075Y-36856482D01*
X127531704Y-37110869D01*
X127460441Y-37376831D01*
X127460438Y-37376844D01*
X127424501Y-37649815D01*
X127424500Y-37649832D01*
X120150500Y-37649832D01*
X120150500Y-30915473D01*
X120112321Y-30674424D01*
X120036904Y-30442315D01*
X119926106Y-30224861D01*
X119838042Y-30103651D01*
X119782660Y-30027423D01*
X119782656Y-30027418D01*
X116961819Y-27206581D01*
X116928334Y-27145258D01*
X116925500Y-27118900D01*
X116925500Y-25013733D01*
X116945185Y-24946694D01*
X116956279Y-24931967D01*
X116957626Y-24930431D01*
X117033217Y-24831918D01*
X117125249Y-24711979D01*
X117262923Y-24473521D01*
X117368295Y-24219132D01*
X117411906Y-24056372D01*
X126624500Y-24056372D01*
X126624500Y-24318627D01*
X126647541Y-24493630D01*
X126658730Y-24578616D01*
X126726602Y-24831918D01*
X126726605Y-24831928D01*
X126826953Y-25074190D01*
X126826958Y-25074200D01*
X126958075Y-25301303D01*
X127117718Y-25509351D01*
X127117726Y-25509360D01*
X127303140Y-25694774D01*
X127303148Y-25694781D01*
X127511196Y-25854424D01*
X127738299Y-25985541D01*
X127738309Y-25985546D01*
X127980571Y-26085894D01*
X127980581Y-26085898D01*
X128233884Y-26153770D01*
X128493880Y-26188000D01*
X128493887Y-26188000D01*
X128756113Y-26188000D01*
X128756120Y-26188000D01*
X129016116Y-26153770D01*
X129269419Y-26085898D01*
X129511697Y-25985543D01*
X129738803Y-25854424D01*
X129946851Y-25694782D01*
X129946855Y-25694777D01*
X129946860Y-25694774D01*
X130132274Y-25509360D01*
X130132277Y-25509355D01*
X130132282Y-25509351D01*
X130291924Y-25301303D01*
X130423043Y-25074197D01*
X130523398Y-24831919D01*
X130591270Y-24578616D01*
X130625500Y-24318620D01*
X130625500Y-24056380D01*
X130591270Y-23796384D01*
X130523398Y-23543081D01*
X130497962Y-23481673D01*
X130423046Y-23300809D01*
X130423041Y-23300799D01*
X130291924Y-23073696D01*
X130132281Y-22865648D01*
X130132274Y-22865640D01*
X129946860Y-22680226D01*
X129946851Y-22680218D01*
X129738803Y-22520575D01*
X129511700Y-22389458D01*
X129511690Y-22389453D01*
X129269428Y-22289105D01*
X129269421Y-22289103D01*
X129269419Y-22289102D01*
X129016116Y-22221230D01*
X128958339Y-22213623D01*
X128756127Y-22187000D01*
X128756120Y-22187000D01*
X128493880Y-22187000D01*
X128493872Y-22187000D01*
X128262772Y-22217426D01*
X128233884Y-22221230D01*
X128010968Y-22280960D01*
X127980581Y-22289102D01*
X127980571Y-22289105D01*
X127738309Y-22389453D01*
X127738299Y-22389458D01*
X127511196Y-22520575D01*
X127303148Y-22680218D01*
X127117718Y-22865648D01*
X126958075Y-23073696D01*
X126826958Y-23300799D01*
X126826953Y-23300809D01*
X126726605Y-23543071D01*
X126726602Y-23543081D01*
X126680059Y-23716785D01*
X126658730Y-23796385D01*
X126624500Y-24056372D01*
X117411906Y-24056372D01*
X117439560Y-23953166D01*
X117475500Y-23680174D01*
X117475500Y-23404826D01*
X117439560Y-23131834D01*
X117368295Y-22865868D01*
X117262923Y-22611479D01*
X117262921Y-22611476D01*
X117262919Y-22611471D01*
X117210439Y-22520575D01*
X117125249Y-22373021D01*
X116957628Y-22154572D01*
X116957623Y-22154566D01*
X116762933Y-21959876D01*
X116762926Y-21959870D01*
X116544483Y-21792254D01*
X116544482Y-21792253D01*
X116544479Y-21792251D01*
X116426818Y-21724319D01*
X116306028Y-21654580D01*
X116306017Y-21654575D01*
X116051630Y-21549204D01*
X115918649Y-21513572D01*
X115785666Y-21477940D01*
X115785660Y-21477939D01*
X115785655Y-21477938D01*
X115512684Y-21442001D01*
X115512679Y-21442000D01*
X115512674Y-21442000D01*
X115237326Y-21442000D01*
X115237320Y-21442000D01*
X115237315Y-21442001D01*
X114964344Y-21477938D01*
X114964337Y-21477939D01*
X114964334Y-21477940D01*
X114908125Y-21493000D01*
X114698369Y-21549204D01*
X114443982Y-21654575D01*
X114443971Y-21654580D01*
X114205516Y-21792254D01*
X113987073Y-21959870D01*
X113987066Y-21959876D01*
X113792376Y-22154566D01*
X113792370Y-22154573D01*
X113624754Y-22373016D01*
X113487080Y-22611471D01*
X113487075Y-22611482D01*
X113381704Y-22865869D01*
X113310441Y-23131831D01*
X113310438Y-23131844D01*
X113274501Y-23404815D01*
X113274500Y-23404832D01*
X113274500Y-23680167D01*
X113274501Y-23680184D01*
X113310438Y-23953155D01*
X113310439Y-23953160D01*
X113310440Y-23953166D01*
X113310441Y-23953168D01*
X113381704Y-24219130D01*
X113487075Y-24473517D01*
X113487080Y-24473528D01*
X113564579Y-24607758D01*
X113624751Y-24711979D01*
X113624753Y-24711982D01*
X113624754Y-24711983D01*
X113792373Y-24930431D01*
X113793721Y-24931967D01*
X113793978Y-24932522D01*
X113794843Y-24933649D01*
X113794591Y-24933842D01*
X113823129Y-24995346D01*
X113824500Y-25013733D01*
X113824500Y-27934526D01*
X113842968Y-28051131D01*
X113862679Y-28175576D01*
X113938096Y-28407685D01*
X113999634Y-28528461D01*
X114048896Y-28625142D01*
X114192339Y-28822576D01*
X114192343Y-28822581D01*
X117013181Y-31643419D01*
X117046666Y-31704742D01*
X117049500Y-31731100D01*
X117049500Y-37203946D01*
X117029815Y-37270985D01*
X116977011Y-37316740D01*
X116907853Y-37326684D01*
X116844297Y-37297659D01*
X116807569Y-37242265D01*
X116728239Y-36998116D01*
X116656072Y-36856482D01*
X116613870Y-36773655D01*
X116511858Y-36633247D01*
X116465798Y-36569850D01*
X116465794Y-36569845D01*
X116287654Y-36391705D01*
X116287649Y-36391701D01*
X116083848Y-36243632D01*
X116083847Y-36243631D01*
X116083845Y-36243630D01*
X116007774Y-36204870D01*
X115859383Y-36129260D01*
X115619785Y-36051410D01*
X115530389Y-36037251D01*
X115370962Y-36012000D01*
X115119038Y-36012000D01*
X114994626Y-36031705D01*
X114870214Y-36051410D01*
X114630616Y-36129260D01*
X114406151Y-36243632D01*
X114202350Y-36391701D01*
X114202345Y-36391705D01*
X114024205Y-36569845D01*
X114024201Y-36569850D01*
X113876132Y-36773651D01*
X113761760Y-36998116D01*
X113683910Y-37237714D01*
X113644500Y-37486538D01*
X113644500Y-37738461D01*
X113683910Y-37987285D01*
X113761760Y-38226883D01*
X113832584Y-38365881D01*
X113874833Y-38448800D01*
X113876132Y-38451348D01*
X114024201Y-38655149D01*
X114024205Y-38655154D01*
X114163870Y-38794819D01*
X114197355Y-38856142D01*
X114192371Y-38925834D01*
X114163870Y-38970181D01*
X114024205Y-39109845D01*
X114024201Y-39109850D01*
X113876132Y-39313651D01*
X113761760Y-39538116D01*
X113683910Y-39777714D01*
X113644500Y-40026538D01*
X113644500Y-40278461D01*
X113683910Y-40527285D01*
X113761760Y-40766883D01*
X113876132Y-40991348D01*
X114024201Y-41195149D01*
X114024205Y-41195154D01*
X114163870Y-41334819D01*
X114197355Y-41396142D01*
X114192371Y-41465834D01*
X114163870Y-41510181D01*
X114024205Y-41649845D01*
X114024201Y-41649850D01*
X113876132Y-41853651D01*
X113761760Y-42078116D01*
X113683910Y-42317714D01*
X113644500Y-42566538D01*
X113644500Y-42818461D01*
X113683910Y-43067285D01*
X113761760Y-43306883D01*
X113876132Y-43531348D01*
X114024201Y-43735149D01*
X114024205Y-43735154D01*
X114163870Y-43874819D01*
X114197355Y-43936142D01*
X114192371Y-44005834D01*
X114163870Y-44050181D01*
X114024205Y-44189845D01*
X114024201Y-44189850D01*
X113876132Y-44393651D01*
X113761760Y-44618118D01*
X113683910Y-44857715D01*
X113683141Y-44860919D01*
X113682515Y-44862008D01*
X113682405Y-44862348D01*
X113682333Y-44862324D01*
X113648348Y-44921510D01*
X113586321Y-44953672D01*
X113516752Y-44947194D01*
X113474887Y-44919649D01*
X112605081Y-44049843D01*
X112605076Y-44049839D01*
X112407642Y-43906396D01*
X112407641Y-43906395D01*
X112407639Y-43906394D01*
X112190185Y-43795596D01*
X111958076Y-43720179D01*
X111958074Y-43720178D01*
X111958072Y-43720178D01*
X111789769Y-43693521D01*
X111717027Y-43682000D01*
X111717026Y-43682000D01*
X109119457Y-43682000D01*
X109052418Y-43662315D01*
X109006663Y-43609511D01*
X108996719Y-43540353D01*
X109008972Y-43501705D01*
X109028117Y-43464132D01*
X109108241Y-43306879D01*
X109186090Y-43067285D01*
X109225500Y-42818462D01*
X109225500Y-42566538D01*
X109186090Y-42317715D01*
X109108241Y-42078121D01*
X109108239Y-42078118D01*
X109108239Y-42078116D01*
X109030406Y-41925361D01*
X109008971Y-41883294D01*
X108996076Y-41814626D01*
X109022352Y-41749885D01*
X109079459Y-41709628D01*
X109119457Y-41703000D01*
X109207026Y-41703000D01*
X109207027Y-41703000D01*
X109448076Y-41664821D01*
X109680185Y-41589404D01*
X109897639Y-41478606D01*
X110095083Y-41335155D01*
X111557655Y-39872583D01*
X111701106Y-39675139D01*
X111811904Y-39457686D01*
X111887321Y-39225576D01*
X111925500Y-38984527D01*
X111925500Y-38740474D01*
X111925500Y-25013733D01*
X111945185Y-24946694D01*
X111956279Y-24931967D01*
X111957626Y-24930431D01*
X112033217Y-24831918D01*
X112125249Y-24711979D01*
X112262923Y-24473521D01*
X112368295Y-24219132D01*
X112439560Y-23953166D01*
X112475500Y-23680174D01*
X112475500Y-23404826D01*
X112439560Y-23131834D01*
X112368295Y-22865868D01*
X112262923Y-22611479D01*
X112262921Y-22611476D01*
X112262919Y-22611471D01*
X112210439Y-22520575D01*
X112125249Y-22373021D01*
X111957628Y-22154572D01*
X111957623Y-22154566D01*
X111762933Y-21959876D01*
X111762926Y-21959870D01*
X111544483Y-21792254D01*
X111544482Y-21792253D01*
X111544479Y-21792251D01*
X111426818Y-21724319D01*
X111306028Y-21654580D01*
X111306017Y-21654575D01*
X111051630Y-21549204D01*
X110918649Y-21513572D01*
X110785666Y-21477940D01*
X110785660Y-21477939D01*
X110785655Y-21477938D01*
X110512684Y-21442001D01*
X110512679Y-21442000D01*
X110512674Y-21442000D01*
X110237326Y-21442000D01*
X110237320Y-21442000D01*
X110237315Y-21442001D01*
X109964344Y-21477938D01*
X109964337Y-21477939D01*
X109964334Y-21477940D01*
X109908125Y-21493000D01*
X109698369Y-21549204D01*
X109443982Y-21654575D01*
X109443971Y-21654580D01*
X109205516Y-21792254D01*
X108987073Y-21959870D01*
X108987066Y-21959876D01*
X108792376Y-22154566D01*
X108792370Y-22154573D01*
X108624754Y-22373016D01*
X108487080Y-22611471D01*
X108487075Y-22611482D01*
X108381704Y-22865869D01*
X108310441Y-23131831D01*
X108310438Y-23131844D01*
X108274501Y-23404815D01*
X108274500Y-23404832D01*
X108274500Y-23680167D01*
X108274501Y-23680184D01*
X108310438Y-23953155D01*
X108310439Y-23953160D01*
X108310440Y-23953166D01*
X108310441Y-23953168D01*
X108381704Y-24219130D01*
X108487075Y-24473517D01*
X108487080Y-24473528D01*
X108564579Y-24607758D01*
X108624751Y-24711979D01*
X108624753Y-24711982D01*
X108624754Y-24711983D01*
X108792373Y-24930431D01*
X108793721Y-24931967D01*
X108793978Y-24932522D01*
X108794843Y-24933649D01*
X108794591Y-24933842D01*
X108823129Y-24995346D01*
X108824500Y-25013733D01*
X108824500Y-31194900D01*
X108804815Y-31261939D01*
X108752011Y-31307694D01*
X108682853Y-31317638D01*
X108619297Y-31288613D01*
X108612819Y-31282581D01*
X103935081Y-26604843D01*
X103935076Y-26604839D01*
X103737642Y-26461396D01*
X103737641Y-26461395D01*
X103737639Y-26461394D01*
X103520185Y-26350596D01*
X103288076Y-26275179D01*
X103288074Y-26275178D01*
X103288072Y-26275178D01*
X103119769Y-26248521D01*
X103047027Y-26237000D01*
X103047026Y-26237000D01*
X94068600Y-26237000D01*
X94039159Y-26228355D01*
X94009173Y-26221832D01*
X94004157Y-26218077D01*
X94001561Y-26217315D01*
X93980919Y-26200681D01*
X93955175Y-26174937D01*
X93921690Y-26113614D01*
X93918856Y-26087256D01*
X93918856Y-24909512D01*
X93938541Y-24842473D01*
X93949635Y-24827746D01*
X93950982Y-24826210D01*
X94013056Y-24745313D01*
X94118605Y-24607758D01*
X94256279Y-24369300D01*
X94361651Y-24114911D01*
X94432916Y-23848945D01*
X94468856Y-23575953D01*
X94468856Y-23404832D01*
X103274500Y-23404832D01*
X103274500Y-23680167D01*
X103274501Y-23680184D01*
X103310438Y-23953155D01*
X103310439Y-23953160D01*
X103310440Y-23953166D01*
X103310441Y-23953168D01*
X103381704Y-24219130D01*
X103487075Y-24473517D01*
X103487080Y-24473528D01*
X103564579Y-24607758D01*
X103624751Y-24711979D01*
X103624753Y-24711982D01*
X103624754Y-24711983D01*
X103792370Y-24930426D01*
X103792376Y-24930433D01*
X103987066Y-25125123D01*
X103987072Y-25125128D01*
X104205521Y-25292749D01*
X104358778Y-25381232D01*
X104443971Y-25430419D01*
X104443976Y-25430421D01*
X104443979Y-25430423D01*
X104698368Y-25535795D01*
X104964334Y-25607060D01*
X105237326Y-25643000D01*
X105237333Y-25643000D01*
X105512667Y-25643000D01*
X105512674Y-25643000D01*
X105785666Y-25607060D01*
X106051632Y-25535795D01*
X106306021Y-25430423D01*
X106544479Y-25292749D01*
X106762928Y-25125128D01*
X106957628Y-24930428D01*
X107125249Y-24711979D01*
X107262923Y-24473521D01*
X107368295Y-24219132D01*
X107439560Y-23953166D01*
X107475500Y-23680174D01*
X107475500Y-23404826D01*
X107439560Y-23131834D01*
X107368295Y-22865868D01*
X107262923Y-22611479D01*
X107262921Y-22611476D01*
X107262919Y-22611471D01*
X107210439Y-22520575D01*
X107125249Y-22373021D01*
X106957628Y-22154572D01*
X106957623Y-22154566D01*
X106762933Y-21959876D01*
X106762926Y-21959870D01*
X106544483Y-21792254D01*
X106544482Y-21792253D01*
X106544479Y-21792251D01*
X106426818Y-21724319D01*
X106306028Y-21654580D01*
X106306017Y-21654575D01*
X106051630Y-21549204D01*
X105918649Y-21513572D01*
X105785666Y-21477940D01*
X105785660Y-21477939D01*
X105785655Y-21477938D01*
X105512684Y-21442001D01*
X105512679Y-21442000D01*
X105512674Y-21442000D01*
X105237326Y-21442000D01*
X105237320Y-21442000D01*
X105237315Y-21442001D01*
X104964344Y-21477938D01*
X104964337Y-21477939D01*
X104964334Y-21477940D01*
X104908125Y-21493000D01*
X104698369Y-21549204D01*
X104443982Y-21654575D01*
X104443971Y-21654580D01*
X104205516Y-21792254D01*
X103987073Y-21959870D01*
X103987066Y-21959876D01*
X103792376Y-22154566D01*
X103792370Y-22154573D01*
X103624754Y-22373016D01*
X103487080Y-22611471D01*
X103487075Y-22611482D01*
X103381704Y-22865869D01*
X103310441Y-23131831D01*
X103310438Y-23131844D01*
X103274501Y-23404815D01*
X103274500Y-23404832D01*
X94468856Y-23404832D01*
X94468856Y-23300605D01*
X94432916Y-23027613D01*
X94361651Y-22761647D01*
X94256279Y-22507258D01*
X94256277Y-22507255D01*
X94256275Y-22507250D01*
X94155990Y-22333553D01*
X94118605Y-22268800D01*
X93950984Y-22050351D01*
X93950979Y-22050344D01*
X93949626Y-22048801D01*
X93949367Y-22048243D01*
X93948513Y-22047130D01*
X93948762Y-22046938D01*
X93920225Y-21985419D01*
X93918856Y-21967045D01*
X93918856Y-21183829D01*
X93898098Y-21052770D01*
X93880677Y-20942780D01*
X93805260Y-20710671D01*
X93694462Y-20493217D01*
X93676135Y-20467992D01*
X93551016Y-20295779D01*
X93551012Y-20295774D01*
X92210081Y-18954843D01*
X92210076Y-18954839D01*
X92012642Y-18811396D01*
X92012641Y-18811395D01*
X92012639Y-18811394D01*
X91795185Y-18700596D01*
X91563076Y-18625179D01*
X91563074Y-18625178D01*
X91563072Y-18625178D01*
X91394769Y-18598521D01*
X91322027Y-18587000D01*
X69772027Y-18587000D01*
X69527973Y-18587000D01*
X69472093Y-18595850D01*
X69286927Y-18625178D01*
X69054812Y-18700597D01*
X68837357Y-18811396D01*
X68639923Y-18954839D01*
X68639918Y-18954843D01*
X67936681Y-19658081D01*
X67875358Y-19691566D01*
X67805666Y-19686582D01*
X67749733Y-19644710D01*
X67725316Y-19579246D01*
X67725000Y-19570400D01*
X67725000Y-18361500D01*
X67744685Y-18294461D01*
X67797489Y-18248706D01*
X67849000Y-18237500D01*
X129350372Y-18237500D01*
X129364930Y-18238358D01*
G37*
%TD.AperFunction*%
%TD*%
M02*
